<?xml version="1.0" standalone="no"?>
<!DOCTYPE svg PUBLIC "-//W3C//DTD SVG 1.1//EN" "http://www.w3.org/Graphics/SVG/1.1/DTD/svg11.dtd" >
<svg xmlns="http://www.w3.org/2000/svg">
<metadata></metadata>
<defs>
<font id="pf_agora_slab_probold" horiz-adv-x="1283" >
<font-face units-per-em="2048" ascent="1536" descent="-512" />
<missing-glyph horiz-adv-x="638" />
<glyph horiz-adv-x="2048" />
<glyph horiz-adv-x="2048" />
<glyph unicode="&#xd;" horiz-adv-x="2048" />
<glyph unicode=" "  horiz-adv-x="638" />
<glyph unicode="&#x09;" horiz-adv-x="638" />
<glyph unicode="&#xa0;" horiz-adv-x="638" />
<glyph unicode="!" horiz-adv-x="603" d="M142 125q0 62 46 107t115 45q72 0 115.5 -44t43.5 -108q0 -62 -45 -107.5t-114 -45.5q-73 0 -117 45t-44 108zM164 1516h279l-2 -572l-30 -529h-214l-27 529z" />
<glyph unicode="&#x22;" horiz-adv-x="778" d="M105 1482h248l-43 -518h-166zM439 1482h245l-39 -518h-167z" />
<glyph unicode="#" horiz-adv-x="1260" d="M125 423l13 145h180l65 281h-176l10 142h200l90 379h162l-88 -379h246l91 379h161l-86 -379h158l-12 -142h-180l-67 -281h175l-11 -145h-194l-97 -423h-165l97 423h-245l-99 -423h-166l99 423h-161zM484 568h245l65 281h-246z" />
<glyph unicode="$" d="M152 1038q0 168 97 272.5t260 132.5v149h88v-1756h-88v179q-90 8 -177 29.5t-172 66.5v324h175v-166q49 -24 89 -32.5t85 -12.5v443q-73 21 -137 51.5t-112.5 74.5t-78 104t-29.5 141zM385 1065q0 -70 34.5 -104t89.5 -58v330q-55 -17 -89.5 -57t-34.5 -111zM669 -164 v1756h92v-147q74 -7 149 -25t137 -55v-314h-174v164q-27 10 -54 18t-58 12v-420q72 -24 140.5 -52.5t124.5 -73.5t90.5 -109.5t34.5 -156.5q0 -179 -106.5 -281.5t-283.5 -130.5v-185h-92zM761 234q66 15 108 60t42 127q0 69 -42 107t-108 63v-357z" />
<glyph unicode="%" horiz-adv-x="1935" d="M45 1000q0 82 18.5 161.5t62.5 143t118 102t189 38.5q116 0 189 -40t114.5 -103t58 -143t16.5 -159q0 -84 -19.5 -163.5t-63.5 -140t-117 -96.5t-181 -36q-114 0 -188 35t-117 95.5t-61.5 138.5t-18.5 167zM265 998q0 -60 6 -110.5t24.5 -88.5t50.5 -58.5t87 -20.5 q47 0 78 24t48 62.5t23.5 89t6.5 104.5q0 45 -4 96t-20.5 92.5t-47.5 68.5t-84 27q-56 0 -89.5 -27t-51 -67.5t-22.5 -92.5t-5 -99zM544 -43l677 1565h177l-678 -1565h-176zM1118 428q0 82 18.5 161.5t62.5 143t118 102t189 38.5q116 0 188.5 -39.5t114.5 -103t58.5 -142 t16.5 -158.5q0 -84 -19.5 -163.5t-63.5 -141t-117 -97.5t-180 -36q-115 0 -189 35t-117 95.5t-61.5 140t-18.5 165.5zM1338 426q0 -57 6 -109t24.5 -89t50.5 -58.5t87 -21.5q47 0 78 23.5t48.5 62.5t23.5 90t6 104q0 46 -4 96t-20.5 92t-47.5 70t-84 28q-56 0 -89.5 -27 t-51 -69t-22.5 -93t-5 -99z" />
<glyph unicode="&#x26;" horiz-adv-x="1695" d="M103 400q0 133 84 250.5t258 209.5q-60 78 -85 148.5t-25 140.5q0 51 18.5 109t59.5 106.5t108.5 79.5t168.5 31q105 0 176.5 -32.5t112.5 -78.5t58 -99.5t17 -94.5q0 -62 -25 -116t-65.5 -99.5t-93.5 -82.5t-109 -72q43 -58 92.5 -121.5t105.5 -128.5q36 -43 73 -83.5 t76 -81.5q62 62 108 140.5t64 171.5h-151v187h525v-187h-138q-21 -127 -86 -243t-164 -214q72 -62 154 -118t154 -87l-101 -175q-41 17 -89 44t-99.5 59.5t-102.5 70t-92 73.5q-103 -69 -223 -104.5t-247 -35.5q-108 0 -203 27t-164.5 82t-109.5 136t-40 188zM365 417 q0 -123 81 -186t201 -63q69 0 141 22.5t139 65.5q-43 45 -83 91.5t-79 93.5q-51 62 -102.5 125.5t-96.5 121.5q-86 -50 -143.5 -114.5t-57.5 -156.5zM572 1159q0 -43 22.5 -93.5t61.5 -106.5q35 19 68 40t58.5 46.5t42 55.5t16.5 69q0 60 -39 94.5t-103 34.5q-34 0 -58 -13 t-39 -34.5t-22.5 -46.5t-7.5 -46z" />
<glyph unicode="'" horiz-adv-x="513" d="M131 1482h247l-40 -518h-168z" />
<glyph unicode="(" horiz-adv-x="710" d="M133 602q0 157 33.5 296.5t85 258t115 213.5t125.5 163l130 -82q-29 -39 -69 -112t-76 -179t-61.5 -244t-25.5 -307q0 -187 25.5 -333.5t63.5 -256t77 -182.5t68 -112l-129 -88q-62 66 -127 163t-116.5 218.5t-85 267.5t-33.5 316z" />
<glyph unicode=")" horiz-adv-x="715" d="M82 1451l131 82q62 -69 125.5 -163.5t115 -213t84 -258t32.5 -296.5q0 -170 -33.5 -316t-85 -267.5t-116 -217.5t-126.5 -162l-125 86q26 39 66.5 112t77.5 182.5t63.5 256.5t26.5 335q0 168 -26.5 306.5t-64.5 243.5t-78 178.5t-67 111.5z" />
<glyph unicode="*" horiz-adv-x="905" d="M94 1153q13 62 29.5 114.5t42.5 106.5q56 -34 112.5 -65t113.5 -64q-13 62 -27 124.5t-25 124.5q31 4 59.5 6t58.5 2t58 -2t56 -6q-12 -62 -24 -124.5t-27 -124.5q55 31 112 63t116 62q30 -53 44.5 -107t25.5 -110q-66 -11 -130.5 -19.5t-132.5 -15.5l188 -174 q-40 -41 -84.5 -73t-93.5 -63l-112 237q-27 -58 -54.5 -116.5t-53.5 -117.5q-51 28 -96 59t-88 74q47 43 95.5 88t93.5 88z" />
<glyph unicode="+" d="M217 562v178h353v354h183v-354h351v-178h-351v-367h-183v367h-353z" />
<glyph unicode="," horiz-adv-x="560" d="M103 -207q56 52 85 104t38 113q-64 7 -90.5 47t-26.5 93q0 62 45.5 107.5t120.5 45.5q86 0 128 -57t42 -132q0 -57 -20.5 -116.5t-56 -114.5t-84 -102.5t-106.5 -81.5z" />
<glyph unicode="-" horiz-adv-x="842" d="M127 471v213h589v-213h-589z" />
<glyph unicode="." horiz-adv-x="560" d="M111 142q0 34 14.5 64t37 52.5t52.5 36t62 13.5q69 0 117.5 -48.5t48.5 -117.5q0 -70 -48.5 -118t-115.5 -48q-69 0 -118.5 49t-49.5 117z" />
<glyph unicode="/" horiz-adv-x="794" d="M17 -71l557 1589h208l-556 -1589h-209z" />
<glyph unicode="0" d="M60 710q0 135 27 268.5t94 239t180 170.5t284 65q174 0 286 -66.5t175.5 -172.5t88 -238.5t24.5 -261.5q0 -142 -29 -274t-96.5 -233.5t-177.5 -162.5t-271 -61q-175 0 -287.5 60t-178 160t-92.5 231.5t-27 275.5zM361 708q0 -107 12 -201t43 -163t85.5 -108t143.5 -39 q84 0 137 43.5t83 114.5t41.5 163.5t11.5 191.5q0 84 -7.5 177.5t-35.5 170.5t-83 128t-147 51q-93 0 -148.5 -51t-86 -128t-40 -170.5t-9.5 -179.5z" />
<glyph unicode="1" d="M150 1303l388 131h264v-1237h299v-197h-901v197h305v983q-13 -2 -60 -8t-102 -12.5t-101.5 -13.5t-58.5 -7z" />
<glyph unicode="2" d="M84 0v178q105 89 227 193.5t227 214t174.5 219t69.5 208.5q0 207 -242 206q-56 0 -149.5 -21.5t-209.5 -89.5q-25 45 -47.5 90t-45.5 90q136 93 265 128t236 35q111 0 204 -28t157.5 -80.5t100 -131t35.5 -181.5q0 -121 -62.5 -237t-155 -222.5t-196.5 -201t-190 -169.5 v-3q109 0 220 -1t221 -1v166h224v-361h-1063z" />
<glyph unicode="3" d="M103 78q2 8 12 37t21.5 60.5t21.5 59l14 38.5q121 -37 204.5 -50.5t154.5 -13.5q150 0 235.5 63t85.5 190q0 107 -80 171t-261 64q-26 0 -49 -2.5t-54 -6.5l-36 149q34 37 89.5 89.5t113 109t111.5 108.5t90 89h-391v-168h-219v369h924l37 -161l-409 -403 q95 -6 175.5 -32.5t138.5 -76t91.5 -123.5t33.5 -174q0 -123 -45 -212.5t-124 -151t-184 -91.5t-223 -30q-50 0 -110 5.5t-123.5 15.5t-126.5 29.5t-118 48.5z" />
<glyph unicode="4" d="M64 406v175l646 853h303v-830h208v-198h-208v-209h144v-197h-568v197h135v209h-660zM331 604h396l-3 497h-10q-41 -53 -90.5 -118t-101 -131.5t-101 -130t-90.5 -117.5z" />
<glyph unicode="5" d="M107 80l69 201q123 -36 207.5 -51t154.5 -15q143 0 232.5 61.5t89.5 194.5q0 65 -23.5 111t-64.5 77t-95.5 46t-114.5 15q-105 0 -227 -53l-148 80l53 687h848v-344h-226v145h-384l-26 -340q36 12 80 22t113 10q107 0 201 -28.5t163.5 -85t110.5 -141.5t41 -201 q0 -122 -45 -214.5t-122.5 -154t-181.5 -91.5t-221 -30q-49 0 -110.5 4.5t-126 14.5t-128.5 29.5t-119 50.5z" />
<glyph unicode="6" d="M99 645q0 170 34.5 317.5t110.5 256t195.5 170.5t291.5 62q114 0 196 -16.5t129 -36.5l-47 -202q-80 26 -145.5 33.5t-112.5 7.5q-101 0 -166.5 -43t-106.5 -106.5t-60.5 -134.5t-23.5 -130l10 -8q82 43 163.5 66.5t169.5 23.5q86 0 166 -25.5t141.5 -80.5t97.5 -139 t36 -200q0 -117 -38.5 -204.5t-108.5 -149t-166.5 -92.5t-212.5 -31q-154 0 -260 50.5t-172 139.5t-93.5 210.5t-27.5 261.5zM398 574q0 -57 8.5 -124t36.5 -122t78.5 -91.5t132.5 -36.5q117 0 177.5 70t60.5 186q0 51 -11 96t-36.5 79t-69.5 53.5t-110 19.5 q-56 0 -101 -12.5t-78.5 -27.5t-56.5 -29.5t-31 -19.5v-41z" />
<glyph unicode="7" d="M172 1030v402h953v-187q-144 -314 -285 -622.5t-286 -622.5h-283l560 1235h-431v-205h-228z" />
<glyph unicode="8" d="M88 378q0 47 11.5 102.5t41 110t78 106.5t119.5 95q-90 55 -134 119.5t-44 165.5q0 82 36 152t101.5 121.5t156 81t198.5 29.5q84 0 169.5 -20.5t156.5 -65t116 -115.5t45 -172q0 -76 -38 -161.5t-155 -173.5q103 -54 168.5 -142t65.5 -217q0 -88 -38 -164t-110.5 -130.5 t-174.5 -85.5t-227 -31q-258 0 -400 107t-142 288zM390 404q0 -82 60.5 -141.5t183.5 -59.5q60 0 107 16.5t79 46t48 68t16 79.5q0 45 -20.5 80.5t-61.5 66.5t-103.5 61.5t-146.5 64.5q-96 -66 -129 -139t-33 -143zM443 1073q0 -43 21.5 -73t59.5 -56t87 -48.5t107 -48.5 q84 62 116 115t32 105q0 30 -11.5 62t-38 58t-68.5 43t-101 17q-56 0 -95 -18t-62.5 -45t-35 -57t-11.5 -54z" />
<glyph unicode="9" d="M88 970q0 117 40 205.5t110 150t166.5 93.5t210.5 32q155 0 260.5 -51.5t171 -140.5t93.5 -210.5t28 -263.5q0 -168 -36 -314.5t-111 -255t-196 -169.5t-292 -61q-114 0 -196.5 14t-139.5 34l46 197q84 -24 153.5 -30.5t120.5 -6.5q98 0 165 43t108 107.5t59.5 136.5 t23.5 131l-11 6q-160 -92 -331 -92q-90 0 -171 27t-140.5 81.5t-95.5 138.5t-36 198zM372 976q0 -51 11 -97t37.5 -80t71 -53t110.5 -19q55 0 101 12t79 26.5t55.5 28.5t30.5 21v41q0 58 -8 123.5t-36 120.5t-77.5 91t-133.5 36q-116 0 -178.5 -68.5t-62.5 -182.5z" />
<glyph unicode=":" horiz-adv-x="554" d="M111 142q0 34 14.5 64t37 52.5t52.5 36t62 13.5q69 0 117.5 -48.5t48.5 -117.5q0 -70 -48.5 -118t-115.5 -48q-69 0 -118.5 49t-49.5 117zM111 780q0 66 50 115t116 49q69 0 117.5 -49t48.5 -115q0 -71 -48.5 -119t-115.5 -48q-69 0 -118.5 48.5t-49.5 118.5z" />
<glyph unicode=";" horiz-adv-x="554" d="M107 -207q56 52 85.5 104t37.5 113q-64 7 -90 47t-26 93q0 62 44.5 107.5t118.5 45.5q88 0 130 -57t42 -132q0 -57 -20.5 -116.5t-55.5 -114.5t-85 -102.5t-107 -81.5zM111 780q0 66 50 115t116 49q69 0 117.5 -49t48.5 -115q0 -71 -48.5 -119t-115.5 -48 q-69 0 -118.5 48.5t-49.5 118.5z" />
<glyph unicode="&#x3c;" d="M172 568v146l953 466v-206l-712 -331l712 -335v-205z" />
<glyph unicode="=" d="M185 387v172h911v-172h-911zM185 731v174h911v-174h-911z" />
<glyph unicode="&#x3e;" d="M172 103v205l714 335l-714 331v206l955 -466v-146z" />
<glyph unicode="?" horiz-adv-x="1063" d="M92 1099v346q125 43 242.5 61.5t205.5 18.5q223 0 338 -92.5t115 -250.5q0 -73 -32 -135t-79 -118t-103.5 -105.5t-103.5 -100t-79 -103t-32 -111.5q0 -24 2 -50t6 -59q-62 -2 -119 -4t-120 -6q-9 49 -12 90t-3 70q0 70 27 128.5t68 110.5t88 99.5t88 91.5t68 87t27 88 q0 76 -55 111t-145 35q-41 0 -87 -6.5t-91 -19.5v-176h-214zM327 121q0 62 46 106t111 44q66 0 112.5 -44t46.5 -106q0 -60 -46.5 -102.5t-110.5 -42.5q-66 0 -112.5 42t-46.5 103z" />
<glyph unicode="@" horiz-adv-x="1982" d="M170 718q0 170 66.5 315t181.5 250.5t271 165t337 59.5q180 0 324 -52t244.5 -145.5t153 -227t52.5 -293.5q0 -108 -33 -192.5t-90.5 -141t-132.5 -86.5t-159 -30q-37 0 -76 7.5t-74 25t-63 43t-41 64.5q-52 -56 -127 -88.5t-148 -32.5q-72 0 -116.5 23.5t-70.5 57.5 t-35.5 73t-9.5 72q0 80 38.5 125t104.5 68.5t152.5 33t181.5 21.5v37q0 76 -28 106t-109 30q-111 0 -229 -36l-36 134q70 28 151 43.5t163 15.5q64 0 116.5 -13t91.5 -43t60.5 -79t21.5 -123v-316q0 -43 29 -73t94 -30q26 0 62.5 15.5t70 50.5t57 90t23.5 136q0 131 -42 239 t-122 184.5t-193.5 117t-255.5 40.5q-144 0 -271 -48.5t-220.5 -134.5t-148.5 -201t-55 -251q0 -137 48.5 -254t133 -202t202.5 -133.5t257 -48.5q58 0 127 9.5t159 37.5q10 -32 22.5 -64t26.5 -65q-75 -34 -164 -49t-171 -15q-187 0 -335.5 59t-252 162.5t-159 246 t-55.5 310.5zM843 611q0 -51 24.5 -80.5t80.5 -29.5q76 0 153 67v163q-45 -4 -90 -8.5t-83 -15t-61.5 -33t-23.5 -63.5z" />
<glyph unicode="A" horiz-adv-x="1582" d="M43 0v203h119l447 1274h380l433 -1274h117v-203h-565v203h136l-65 205h-526q-13 -40 -33 -98t-32 -107h139v-203h-550zM585 607h400l-162 513q-6 29 -14.5 55.5t-16.5 57.5h-7l-34 -115q-17 -53 -39 -120t-44.5 -135.5t-44 -135.5t-38.5 -120z" />
<glyph unicode="B" horiz-adv-x="1474" d="M88 0v203h155v1070h-149v204h758q247 0 367.5 -104.5t120.5 -286.5q0 -31 -7.5 -71.5t-28 -84.5t-57 -85t-96.5 -69v-2q69 -24 113.5 -65.5t71.5 -90t38 -101.5t11 -100q0 -95 -35.5 -172t-97.5 -132t-148.5 -84t-187.5 -29h-828zM552 203h271q127 0 184.5 67.5 t57.5 162.5q0 92 -59.5 161t-182.5 69h-271v-460zM552 858h244q109 0 169.5 57t60.5 150q0 92 -55 150t-175 58h-244v-415z" />
<glyph unicode="C" horiz-adv-x="1338" d="M107 735q0 129 30.5 266.5t110 249.5t219.5 184.5t356 72.5q119 0 215.5 -16.5t178.5 -44.5v-415h-217v222q-43 10 -87.5 14.5t-81.5 4.5q-108 0 -184.5 -37.5t-123.5 -107.5t-68.5 -167.5t-21.5 -218.5q0 -131 22.5 -228t74 -161.5t136.5 -95.5t207 -31q26 0 68 2t89 7 t96.5 14t90.5 22l47 -215q-45 -17 -101.5 -32.5t-118 -24.5t-124 -14.5t-118.5 -5.5q-202 0 -336.5 59t-214 161t-112 239.5t-32.5 296.5z" />
<glyph unicode="D" horiz-adv-x="1566" d="M92 0v205h156v1065h-147v209h701q196 0 323 -59t201 -160t104.5 -234.5t30.5 -281.5t-34 -284t-111 -237.5t-206 -162t-320 -60.5h-698zM559 205h198q58 0 124.5 21.5t124 79t93.5 161t36 266.5q0 166 -34 271.5t-88 164t-122 80t-132 21.5h-200v-1065z" />
<glyph unicode="E" horiz-adv-x="1395" d="M92 0v207h148v1066h-146v204h1205v-434h-217v230h-532v-413l495 13v-213l-495 13v-466h558v240h219v-447h-1235z" />
<glyph unicode="F" horiz-adv-x="1360" d="M92 0v205h151v1068h-149v204h1209v-434h-221v230h-532v-413l495 16v-216l-495 13v-468h203v-205h-661z" />
<glyph unicode="G" horiz-adv-x="1481" d="M107 735q0 86 13 176.5t44 176.5t85 162.5t136.5 133.5t196 90.5t265.5 33.5q119 0 225 -16.5t188 -44.5v-406h-217v211q-37 10 -86.5 15.5t-96.5 5.5q-114 0 -194.5 -37.5t-132 -107.5t-76 -168t-24.5 -218q0 -122 19 -219t64.5 -163.5t118.5 -102t182 -35.5 q45 0 103.5 6t101.5 17v348h-191v192h575v-192h-105v-535q-123 -43 -253 -61t-246 -18q-202 0 -335.5 60t-213 163.5t-113 241t-33.5 291.5z" />
<glyph unicode="H" horiz-adv-x="1689" d="M90 0v205h150v1068h-150v204h594v-204h-136v-409h591v409h-133v204h592v-204h-149v-1068h149v-205h-592v205h133v466h-591v-466h136v-205h-594z" />
<glyph unicode="I" horiz-adv-x="900" d="M150 0v205h147v1068h-147v206h601v-206h-147v-1068h147v-205h-601z" />
<glyph unicode="J" horiz-adv-x="941" d="M-41 -181q127 58 203 111t117 114t54 135.5t13 173.5v920h-194v206h671v-206h-169v-929q0 -305 -159.5 -482.5t-461.5 -251.5z" />
<glyph unicode="K" horiz-adv-x="1551" d="M92 0v203h148v1075h-148v199h587v-199h-139v-451l484 451h-127v199h572v-199h-129l-417 -379l468 -694h123v-205h-596l-2 205h127l-342 511l-161 -148v-365h133v-203h-581z" />
<glyph unicode="L" horiz-adv-x="1352" d="M92 0v205h151v1068h-149v204h614v-204h-156v-1068h556v269h221v-474h-1237z" />
<glyph unicode="M" horiz-adv-x="2070" d="M74 0v203h148v1070h-148v204h543q31 -66 66 -144.5t72 -164.5q45 -99 91 -204.5t90 -206.5q30 -62 53.5 -119t42.5 -107h11q24 50 43.5 99t40.5 97q10 26 31.5 77.5t50 115t58.5 134.5t60 138q41 92 73 168t49 117h540v-204h-136v-1070h136v-203h-567v203h127v868h-5 q-27 -58 -51 -117t-48 -117q-31 -72 -69 -160t-77 -175t-72 -163.5t-53 -123.5h-271q-84 177 -157 340t-157 350q-17 41 -35 82t-35 84h-8q0 -219 -1 -435.5t-1 -432.5h138v-203h-573z" />
<glyph unicode="N" horiz-adv-x="1750" d="M86 0v203h148q0 268 1 533.5t1 536.5h-148v204h478q78 -127 144 -228.5t127.5 -199t123 -194t129.5 -210.5q32 -50 63 -99t62 -101h10v828h-146v204h577v-204h-142v-1273h-301q-144 224 -289.5 444.5t-287.5 445.5q-28 46 -55 91t-56 90q-2 0 -2 -1t-2 -1v-866h146v-203 h-581z" />
<glyph unicode="O" horiz-adv-x="1590" d="M107 735q0 160 40 299.5t124 245t215 166t316 60.5t315 -61.5t211.5 -166t118.5 -242.5t37 -296q0 -164 -43 -302.5t-129.5 -241t-213 -160t-296.5 -57.5q-180 0 -311.5 54.5t-216.5 154.5t-126 239t-41 308zM433 733q0 -256 84.5 -394.5t284.5 -138.5q95 0 161.5 40.5 t109.5 111.5t63.5 168.5t20.5 214.5q0 103 -14 202t-54 176t-109 124t-178 47t-181.5 -46t-114.5 -123t-57.5 -175.5t-15.5 -206.5z" />
<glyph unicode="P" horiz-adv-x="1360" d="M92 0v205h144v1068h-144v206h704q252 0 378.5 -121t126.5 -328q0 -80 -25.5 -161t-84 -147t-149 -108t-219.5 -42h-279v-367h191v-205h-643zM544 772h203q47 0 90 14t74 44t49.5 76t18.5 114q0 131 -62.5 192t-179.5 61h-193v-501z" />
<glyph unicode="Q" horiz-adv-x="1597" d="M107 733q0 157 39 298t123 246.5t214 167t315 61.5t315 -61.5t211.5 -167t118 -245.5t36.5 -297q0 -224 -78 -398.5t-238 -265.5q82 -21 166 -42t165 -39l-90 -235l-608 204q-52 8 -101.5 19.5t-92.5 21.5q-259 60 -377 249.5t-118 483.5zM428 731q0 -256 84.5 -393.5 t285.5 -137.5q94 0 162 39.5t111 110.5t63.5 168.5t20.5 214.5q0 103 -14 202t-53 175t-109 124t-181 48q-109 0 -181.5 -46t-114.5 -123t-58 -175.5t-16 -206.5z" />
<glyph unicode="R" horiz-adv-x="1479" d="M97 0v207h139v1066h-139v206h730q127 0 219.5 -30.5t154 -88t90.5 -137t29 -176.5q0 -52 -12.5 -108.5t-42.5 -109.5t-79 -97t-119 -67l215 -468l165 -21v-168q-26 -10 -58 -16.5t-65.5 -11t-63.5 -6.5t-49 -2q-93 0 -138 39.5t-80 117.5l-213 484h-238v-406h157v-207 h-602zM542 811h215q43 0 86 11t76 37.5t54.5 72.5t21.5 117q0 60 -18 103.5t-50 70.5t-74 38.5t-90 11.5h-221v-462z" />
<glyph unicode="S" horiz-adv-x="1319" d="M88 428h218q0 -43 1 -81.5t1 -81.5q73 -33 152.5 -44.5t141.5 -11.5q84 0 140 17t89 45t48.5 64.5t15.5 72.5q0 52 -24 87.5t-66 60.5t-99 43t-125 35q-105 26 -193.5 59.5t-153 81.5t-101 115t-36.5 161q0 107 40.5 190.5t115 140t177.5 86.5t226 30q107 0 235.5 -20 t230.5 -74q0 -84 1.5 -166.5t1.5 -166.5h-220q0 43 -1 84t-1 84q-47 19 -116 27.5t-120 8.5q-129 0 -189.5 -53.5t-60.5 -137.5q0 -46 21.5 -77t61.5 -55.5t99 -44t136 -39.5q92 -26 183 -56t161 -78t113 -122t43 -186q0 -114 -43 -199t-123 -139.5t-194 -81.5t-253 -27 q-132 0 -270.5 22.5t-261.5 80.5q0 86 -1 172t-1 174z" />
<glyph unicode="T" horiz-adv-x="1354" d="M35 1032v447h1288v-447h-217v241h-273v-1068h173v-205h-655v205h176v1068h-277l2 -241h-217z" />
<glyph unicode="U" horiz-adv-x="1627" d="M71 1273v206h565v-206h-139v-735q0 -173 81.5 -253t236.5 -80q144 0 229 78t85 255v735h-136v206h564v-206h-129v-729q0 -263 -148.5 -413t-466.5 -150q-166 0 -283 38.5t-191 111t-109 176.5t-35 237v729h-124z" />
<glyph unicode="V" horiz-adv-x="1537" d="M21 1270v207h570v-207h-127q60 -204 122.5 -398.5t125.5 -395.5q17 -52 31 -105t31 -106h8q17 53 33 105.5t30 109.5q62 197 121.5 396t121.5 394h-129v207h555v-207h-123q-109 -320 -214.5 -637t-215.5 -633h-380q-110 316 -218.5 633t-220.5 637h-121z" />
<glyph unicode="W" horiz-adv-x="2240" d="M24 1270v209h583v-209h-131l162 -666l76 -325h6l88 323l171 584l-29 84h-135l-2 209h589l2 -209h-144l209 -673l88 -287h6l69 312l151 648h-133v209h574v-209h-129q-15 -57 -42.5 -158t-60.5 -222.5t-69.5 -255t-69.5 -255t-60.5 -221.5t-40.5 -158h-380l-186 615 l-64 210h-4l-64 -216l-186 -609h-378l-344 1270h-122z" />
<glyph unicode="X" horiz-adv-x="1517" d="M60 0v207h129l373 556l-336 507h-162v209h631v-209h-116l217 -339l228 339h-125v209h542v-209h-130l-369 -517l369 -546h147l3 -207h-636v207h123l-236 372l-238 -372h126v-207h-540z" />
<glyph unicode="Y" horiz-adv-x="1431" d="M28 1270v209h553v-209h-123l256 -474h8l261 474h-125v209h548v-209h-118l-415 -685v-380h168v-205h-661v205h168v376l-406 689h-114z" />
<glyph unicode="Z" horiz-adv-x="1307" d="M54 0v203l773 1070h-503v-239h-219v445h1110v-197l-778 -1075h599v273h222v-480h-1204z" />
<glyph unicode="[" horiz-adv-x="667" d="M135 -344v1848h458v-170h-203v-1515h203v-163h-458z" />
<glyph unicode="\" horiz-adv-x="794" d="M17 1518h209l556 -1589h-208z" />
<glyph unicode="]" horiz-adv-x="667" d="M82 -181h206v1515h-206v170h460v-1848h-460v163z" />
<glyph unicode="^" horiz-adv-x="1042" d="M41 765l400 696h144l400 -696h-203l-273 482l-266 -482h-202z" />
<glyph unicode="_" horiz-adv-x="1075" d="M0 -162h1075v-150h-1075v150z" />
<glyph unicode="`" horiz-adv-x="1113" d="M324 1445l156 166l318 -364l-99 -103z" />
<glyph unicode="a" horiz-adv-x="1214" d="M69 284q0 59 24 114.5t70 97.5t116 68.5t160 32.5l294 20v52q0 92 -39.5 140.5t-153.5 48.5q-78 0 -165 -15.5t-158 -38.5q-12 45 -25.5 91.5t-23.5 93.5q92 41 212.5 62.5t232.5 21.5q93 0 168 -18.5t126.5 -61.5t79.5 -112.5t28 -170.5v-510h161l16 -161 q-78 -35 -153 -45.5t-128 -10.5q-69 0 -114.5 25t-47.5 111q-2 0 -2 1t-3 1q-53 -52 -107 -81.5t-100.5 -42t-85 -15.5t-59.5 -3q-97 0 -160.5 30t-99 76t-49.5 99.5t-14 99.5zM378 318q0 -75 34.5 -110.5t114.5 -35.5q49 0 104 25t98 65v216l-198 -20q-77 -9 -115 -47.5 t-38 -92.5z" />
<glyph unicode="b" horiz-adv-x="1300" d="M17 1340v199h449v-546q88 50 167 69.5t137 19.5q125 0 209 -42t134 -116.5t70.5 -175.5t20.5 -221q0 -109 -23.5 -208.5t-81.5 -174.5t-157.5 -119t-249.5 -44q-45 0 -108 5.5t-133.5 18t-143.5 33t-139 52.5v1250h-151zM468 234q56 -24 110 -32.5t97 -8.5q49 0 91 14.5 t72 52t47.5 100.5t17.5 163q0 107 -16.5 173.5t-45 102.5t-66 47.5t-78.5 11.5q-60 0 -119 -21.5t-110 -48.5v-554z" />
<glyph unicode="c" horiz-adv-x="1061" d="M86 517q0 92 21.5 190.5t79.5 180.5t161.5 135.5t268.5 53.5q89 0 175 -13t158 -40v-318h-201v141q-60 11 -102 11q-136 0 -198 -86t-62 -247q0 -179 70 -253.5t192 -74.5q75 0 151 15.5t142 39.5l56 -190q-74 -37 -180 -59t-216 -22q-153 0 -252.5 42.5t-158 115 t-82 170t-23.5 208.5z" />
<glyph unicode="d" horiz-adv-x="1311" d="M86 505q0 123 23.5 228.5t77 182.5t140 121.5t211.5 44.5q55 0 135 -13t150 -49v320h-158v199h457v-1342h148v-197h-429v90l-4 2q-35 -28 -77 -48t-85 -34t-85 -21.5t-77 -7.5q-122 0 -203.5 41.5t-132 113t-71 167t-20.5 202.5zM387 509q0 -96 16 -156t45.5 -94.5 t68.5 -48t85 -13.5q55 0 119 26.5t102 55.5v523q-37 24 -98.5 42t-117.5 18q-41 0 -81 -13.5t-70 -52.5t-49.5 -107.5t-19.5 -179.5z" />
<glyph unicode="e" horiz-adv-x="1143" d="M86 525q0 86 22.5 183.5t81 180.5t158 136.5t252.5 53.5q152 0 244 -50t140 -127t63.5 -167t15.5 -169v-108h-676v-9q0 -127 56 -189q58 -64 206 -65q84 0 163.5 17.5t161.5 49.5l64 -180q-102 -56 -215 -79.5t-221 -23.5q-158 0 -257.5 46t-157.5 122.5t-79.5 174 t-21.5 203.5zM392 640h396q0 46 -10 88t-30.5 73.5t-57.5 50t-90 18.5q-54 0 -91.5 -19.5t-63.5 -52.5t-38.5 -73.5t-14.5 -84.5z" />
<glyph unicode="f" horiz-adv-x="909" d="M64 856v164l153 43v137q0 76 18.5 141t63.5 114t121.5 76.5t192.5 27.5q56 0 135 -7.5t153 -29.5l-41 -204q-45 8 -92.5 13t-83.5 5q-84 0 -130.5 -33t-46.5 -113v-136h306v-198h-306v-659h170v-197h-601v197h139v659h-151z" />
<glyph unicode="g" horiz-adv-x="1237" d="M66 -187q0 88 41 152.5t98 94.5q-60 15 -91.5 57.5t-31.5 104.5q0 79 54.5 124.5t123.5 66.5q-62 28 -106.5 95.5t-44.5 179.5q0 105 42 179.5t110 121.5t155 68.5t177 21.5q62 0 120.5 -7t101.5 -18h375v-147h-154l-8 -6q30 -37 46 -94.5t16 -107.5q0 -90 -37.5 -159 t-103 -115.5t-153.5 -70t-189 -25.5h-123q-66 0 -99.5 -15t-33.5 -54q0 -57 86 -57h300q197 0 314 -74.5t117 -235.5q0 -71 -33.5 -137t-107 -116.5t-189.5 -79t-282 -28.5q-143 0 -237.5 23.5t-151 62t-79 89t-22.5 106.5zM361 -117q0 -28 11 -53t38 -45.5t73 -32.5 t117 -12q122 0 190 41t68 105q0 51 -41 93t-142 42h-219q-37 -15 -66 -55t-29 -83zM411 699q0 -82 45 -127t129 -45q88 0 146.5 43t58.5 131q0 29 -10 61t-33 57.5t-59 43t-91 17.5q-92 0 -139 -51t-47 -130z" />
<glyph unicode="h" horiz-adv-x="1375" d="M43 1340v197h441v-578q88 57 179.5 88.5t173.5 31.5q109 0 175.5 -34t103.5 -88t48.5 -118.5t11.5 -122.5v-511h151v-177q-53 -24 -121.5 -34.5t-117.5 -10.5q-74 0 -115.5 22.5t-63 55.5t-26.5 70t-5 64v463q0 101 -32.5 144t-123.5 43q-55 0 -120.5 -24.5t-117.5 -59.5 v-761h-299v1340h-142z" />
<glyph unicode="i" horiz-adv-x="741" d="M107 854v200h406v-847h154v-179q-52 -24 -120.5 -35.5t-118.5 -11.5q-116 0 -163.5 47.5t-49.5 149.5v676h-108zM181 1368q0 76 50 127.5t126 51.5q73 0 126 -51.5t53 -127.5q0 -73 -53 -125.5t-126 -52.5q-76 0 -126 52.5t-50 125.5z" />
<glyph unicode="j" horiz-adv-x="704" d="M-51 -316q88 51 140.5 95.5t80 92.5t36.5 106.5t9 135.5v740h-131v200h433v-929q0 -133 -26.5 -233.5t-84 -174.5t-150 -126.5t-226.5 -91.5zM181 1368q0 76 51.5 127.5t126.5 51.5q35 0 68 -14.5t56.5 -39t39 -56.5t15.5 -69t-15.5 -69.5t-39 -57t-56.5 -38t-68 -13.5 q-75 0 -126.5 52.5t-51.5 125.5z" />
<glyph unicode="k" horiz-adv-x="1278" d="M47 1338v195h450v-881l252 206h-104v196h547v-198h-136l-237 -200l275 -461q37 -4 72.5 -11.5t72.5 -11.5v-164q-49 -16 -108.5 -24t-96.5 -8q-55 0 -98.5 12t-77.5 72l-251 439l-110 -93v-211h118v-195h-557v195h139v1143h-150z" />
<glyph unicode="l" horiz-adv-x="749" d="M82 1334v199h451v-1336h142v-197h-583v197h140v1137h-150z" />
<glyph unicode="m" horiz-adv-x="2019" d="M47 854v200h439v-95l9 -7q86 62 181.5 92.5t172.5 30.5q97 0 160.5 -33t102.5 -106q39 32 86 58t96.5 44t98 28.5t91.5 10.5q105 0 170.5 -30t102 -80.5t50 -117.5t13.5 -139v-505h141v-177q-55 -24 -117.5 -34.5t-114.5 -10.5q-75 0 -116 16t-62.5 49.5t-26 83 t-4.5 113.5v418q0 96 -29.5 135t-116.5 39q-49 0 -115.5 -20.5t-111.5 -53.5q6 -32 7 -65t1 -60v-638h-297v681q0 82 -34 118t-102 36q-53 0 -114.5 -20.5t-112.5 -57.5v-757h-302v854h-146z" />
<glyph unicode="n" horiz-adv-x="1386" d="M49 856v198h439v-93q4 0 5.5 -1t5.5 -1q88 57 176 88.5t170 31.5q109 0 176 -34t102.5 -88t47 -118.5t11.5 -122.5v-511h152v-177q-54 -24 -120.5 -34.5t-119.5 -10.5q-82 0 -124.5 30t-62 69t-21.5 75t-2 52v449q0 101 -32.5 144t-122.5 43q-56 0 -121.5 -24.5 t-115.5 -59.5v-761h-301v856h-142z" />
<glyph unicode="o" horiz-adv-x="1233" d="M86 525q0 111 31 211.5t96.5 175.5t167 120t241.5 45q141 0 242.5 -44t163.5 -120t91.5 -176.5t29.5 -209.5t-30.5 -208.5t-95 -174.5t-166.5 -119t-248 -44q-140 0 -240 42.5t-162.5 116t-91.5 172.5t-29 213zM394 525q0 -69 8.5 -129.5t33 -105.5t68.5 -72t116 -27 q66 0 110 28.5t67.5 75.5t33.5 106.5t10 123.5q0 60 -9 121.5t-32.5 108.5t-65.5 77t-108 30q-70 0 -115 -29t-70.5 -76t-36 -108.5t-10.5 -123.5z" />
<glyph unicode="p" horiz-adv-x="1305" d="M43 -254h146v1108h-146v200h428v-95l5 -2q34 28 74.5 49.5t84.5 35.5t86 21.5t77 7.5q123 0 205.5 -42t131.5 -113t70.5 -165.5t21.5 -202.5q0 -123 -23.5 -228t-77 -180.5t-140.5 -118t-212 -42.5q-54 0 -133 13.5t-153 50.5v-297h157v-200h-602v200zM488 262 q39 -24 100.5 -43t119.5 -19q41 0 79 14t68.5 51.5t50 104.5t19.5 174q0 94 -16.5 153.5t-45 92.5t-67.5 45t-84 12q-56 0 -120.5 -25.5t-103.5 -56.5v-503z" />
<glyph unicode="q" horiz-adv-x="1291" d="M99 501q0 114 25.5 218t87 183t166 126t260.5 47q46 0 105 -5t124.5 -16t134.5 -31.5t131 -48.5v-1228h151v-200h-609v200h162v316q-88 -49 -167 -68.5t-137 -19.5q-120 0 -204 38.5t-135.5 107.5t-73.5 167q-21 90 -21 195v19zM400 527v-23q0 -89 14 -146 q16 -63 45 -97.5t67 -46t81 -11.5q60 0 119 18.5t109 47.5v550q-47 17 -96 26t-96 9q-52 0 -97 -16.5t-77 -55t-50.5 -100.5t-18.5 -155z" />
<glyph unicode="r" horiz-adv-x="983" d="M74 0v197h137v659h-131v200h425v-155l8 -2q35 28 81 60t98 59t107 44t106 17q39 0 55 -20.5t16 -69.5q0 -26 -5 -58t-16 -66t-28.5 -65.5t-38.5 -55.5l-379 21v-568h147v-197h-582z" />
<glyph unicode="s" horiz-adv-x="1072" d="M69 340h206l4 -125q37 -17 97.5 -27t107.5 -10q82 0 142 27t60 83q0 32 -15 54.5t-39.5 39t-56 27t-66.5 19.5q-77 21 -154.5 45t-139 58.5t-98.5 86t-37 131.5q0 170 122 249t331 79q97 0 199.5 -19.5t181.5 -62.5v-131.5t2 -134.5h-208l-2 120q-33 13 -75 20t-79 7 q-73 0 -120 -28.5t-47 -82.5q0 -26 17 -43.5t43 -31t57 -22t57 -14.5q64 -17 140.5 -39t142 -60t108.5 -100.5t43 -166.5q0 -155 -128 -231t-362 -76q-45 0 -99.5 3t-112 12.5t-114 26t-106.5 41.5v137.5t-2 138.5z" />
<glyph unicode="t" horiz-adv-x="905" d="M35 856v166l168 49l74 256l205 19v-290h306v-200h-308v-476q0 -90 26.5 -128.5t117.5 -38.5q32 0 80.5 6.5t103.5 18.5l39 -195q-69 -30 -150.5 -45t-150.5 -15q-111 0 -182 25t-111 68t-55 99.5t-15 119.5v561h-148z" />
<glyph unicode="u" horiz-adv-x="1365" d="M51 854v200h444v-674q0 -82 24.5 -124.5t112.5 -42.5q43 0 108.5 22.5t123.5 78.5v540h-122v200h424v-849h141v-177q-75 -26 -136 -35.5t-102 -9.5q-97 0 -139 33t-52 109q-90 -82 -182.5 -115.5t-174.5 -33.5q-95 0 -157.5 26t-100 72.5t-54 108.5t-16.5 135v536h-142z " />
<glyph unicode="v" horiz-adv-x="1287" d="M41 837v219h335l155 -467q11 -33 26 -80t32.5 -97.5t32 -97.5t25.5 -82h9q9 30 22.5 73.5t28.5 88.5t29.5 87t22.5 71q11 31 24 69.5t26.5 80.5t26.5 81.5t24 70.5h-84v202h469v-202h-94q-17 -48 -42 -116.5t-55 -147.5t-63.5 -163.5t-63.5 -163t-56 -147.5t-44 -116 h-367q-24 71 -66.5 184t-89 233.5t-88.5 234t-66 185.5h-109z" />
<glyph unicode="w" horiz-adv-x="1928" d="M26 837v219h333l152 -539l84 -306h14l83 269l110 331l-17 43h-151v202h579v-202h-107l141 -380l99 -261h8l76 273l107 370h-115v200h481v-200l-95 -2l-261 -854h-388l-108 277l-92 248h-11l-84 -248l-88 -277h-386l-252 837h-112z" />
<glyph unicode="x" horiz-adv-x="1262" d="M51 0l3 191h81l312 373l-221 302h-157l2 194h364l238 -333l115 141h-100v192h488v-192h-107l-287 -328l259 -349h149v-191h-564v191h75l-131 179l-149 -179h74v-191h-444z" />
<glyph unicode="y" d="M45 841v213h333q10 -34 32.5 -102t48 -153t53.5 -176.5t52.5 -172t43 -144t26.5 -89.5h9q8 33 37.5 121t61.5 190t62.5 194.5t42.5 131.5h-116v200h504v-200h-102l-389 -1092q-38 -110 -107 -167t-211 -57q-6 0 -32 1t-65 4t-86.5 11.5t-96.5 26.5l41 214q45 -8 85 -13.5 t77 -5.5q71 0 101 20.5t47 61.5l65 166h-136q-69 205 -132.5 407.5t-131.5 409.5h-117z" />
<glyph unicode="z" horiz-adv-x="1100" d="M64 0v172l579 692h-342v-165h-202v357h912v-168l-581 -701h401v181h201v-368h-968z" />
<glyph unicode="{" horiz-adv-x="698" d="M64 536v156q152 28 153 209v293q0 56 9.5 112.5t36.5 101.5t75.5 74.5t125.5 29.5h190v-168h-59q-71 0 -95 -42t-24 -100v-329q0 -95 -31.5 -164t-120.5 -87v-5q95 -36 123.5 -108t28.5 -185v-375q0 -29 4 -54.5t16.5 -45t35 -31t59.5 -11.5h63v-164h-180 q-76 0 -125.5 24.5t-79 66.5t-41 97t-11.5 118v386q0 86 -36.5 140t-116.5 61z" />
<glyph unicode="|" horiz-adv-x="667" d="M230 -314v1834h203v-1834h-203z" />
<glyph unicode="}" horiz-adv-x="698" d="M49 -193h62q37 0 59.5 11.5t35.5 31t17.5 45t4.5 54.5v375q0 112 28 184.5t122 108.5v5q-88 18 -119 87t-31 164v329q0 58 -25 100t-96 42h-58v168h189q78 0 126.5 -29.5t75 -74.5t36.5 -101.5t10 -112.5v-293q0 -181 152 -209v-156q-79 -7 -115.5 -61t-36.5 -140v-386 q0 -62 -12 -117.5t-41 -97.5t-78 -66.5t-125 -24.5h-181v164z" />
<glyph unicode="~" d="M148 576q47 121 118.5 174.5t159.5 53.5q58 0 121.5 -15t128 -33.5t125.5 -33t113 -14.5l146 103l101 -80q-43 -111 -109.5 -172.5t-163.5 -61.5q-69 0 -135.5 15t-128.5 34.5t-118.5 34t-101.5 14.5l-150 -100z" />
<glyph unicode="&#xa2;" d="M185 517q0 86 18.5 178.5t67.5 170.5t135 135t224 72v195h121v-191q80 -4 156 -17t142 -36v-318h-202v141q-26 5 -50.5 8t-45.5 3v-661q75 0 149 15.5t141 39.5l55 -190q-64 -35 -156.5 -55t-188.5 -24v-166h-121v168q-131 9 -217 55t-136.5 117t-71 163.5t-20.5 196.5z M486 525q0 -129 38 -202t106 -104v616q-76 -33 -110 -111t-34 -199z" />
<glyph unicode="&#xa3;" d="M119 0l2 195q45 29 74 66.5t45 81.5t23.5 92.5t11.5 97.5l6 116h-133v153h145l13 200q6 103 37 189.5t88 146.5t143 93.5t202 33.5q123 0 220.5 -25t169.5 -55v-327h-214v161q-36 11 -74.5 17.5t-85.5 6.5q-117 0 -162 -66.5t-54 -191.5l-10 -183h337v-153h-349l-8 -128 q-4 -97 -26.5 -185t-78.5 -141h712v-195h-1034z" />
<glyph unicode="&#xa5;" d="M33 1233v201h507v-201h-119q54 -123 108 -240t109 -238h9q53 121 106 239t109 239h-122v201h501v-201h-102q-60 -121 -119 -237t-119 -239h236v-108h-997v108h230q-58 123 -117.5 239t-117.5 237h-102zM140 441v111h997v-111h-359v-244h162v-197h-613v197h161v242l-2 2 h-346z" />
<glyph unicode="&#xa8;" horiz-adv-x="975" d="M152 1305q0 54 37 89.5t86 35.5q56 0 92.5 -34.5t36.5 -90.5q0 -51 -35.5 -87t-91.5 -36q-53 0 -89 36t-36 87zM583 1305q0 54 36.5 89.5t86.5 35.5q55 0 93 -34.5t38 -90.5q0 -51 -38 -87t-93 -36q-52 0 -87.5 36t-35.5 87z" />
<glyph unicode="&#xa9;" horiz-adv-x="1844" d="M101 710q0 168 64.5 316t175.5 257.5t260.5 174t319.5 64.5q168 0 316 -64.5t260 -174t176.5 -257.5t64.5 -316t-64.5 -316.5t-176.5 -258t-260.5 -174t-315.5 -64.5q-170 0 -319.5 64.5t-260.5 174t-175.5 258t-64.5 316.5zM230 710q0 -142 55 -266t148.5 -217.5 t219 -147t268.5 -53.5q144 0 268.5 53.5t218.5 147t147.5 217.5t53.5 266t-53.5 266.5t-147.5 218t-218.5 147t-268.5 53.5q-142 0 -268 -53.5t-219.5 -147t-148.5 -218t-55 -266.5zM458 692q0 90 22.5 185t78.5 173.5t154 129t248 50.5q84 0 150.5 -13t121.5 -31v-279h-147 v147q-58 13 -118 13q-150 0 -220.5 -97.5t-70.5 -270.5q0 -180 71 -269.5t239 -89.5q19 0 49.5 2t63.5 5.5t66.5 9.5t58.5 13l31 -146q-62 -24 -151.5 -38t-166.5 -14q-140 0 -231.5 41t-147.5 111t-78.5 164.5t-22.5 203.5z" />
<glyph unicode="&#xab;" horiz-adv-x="1059" d="M105 383v81l357 385l121 -86l-224 -340l222 -335l-123 -90zM501 383v81l359 385l121 -86l-224 -340l222 -335l-121 -90z" />
<glyph unicode="&#xae;" horiz-adv-x="1307" d="M94 1002q0 114 42 214t116.5 174.5t175.5 117.5t221 43q119 0 219 -43t174 -117.5t116 -174.5t42 -214q0 -115 -42 -214.5t-116 -173.5t-175.5 -117t-217.5 -43q-119 0 -219.5 43t-174.5 117t-117.5 174t-43.5 214zM195 1002q0 -93 33.5 -175.5t94 -143.5t144 -97 t182.5 -36q101 0 185 36t143 97t91.5 143.5t32.5 175.5q0 92 -34.5 175t-95 144.5t-142.5 96.5t-180 35q-97 0 -180.5 -35t-143.5 -96.5t-95 -144.5t-35 -175zM385 704v92h60v437h-60v94h310q109 0 159.5 -52t50.5 -134q0 -41 -25.5 -89t-81.5 -71l90 -185l71 -8v-82 q-25 -7 -55.5 -10.5t-49.5 -3.5q-39 0 -59.5 18.5t-33.5 50.5l-92 196h-86v-161h62v-92h-260zM583 1049h84q39 0 67.5 20t28.5 75q0 50 -27.5 70.5t-66.5 20.5h-86v-186z" />
<glyph unicode="&#xb4;" horiz-adv-x="1122" d="M408 1247l316 364l158 -166l-375 -301z" />
<glyph unicode="&#xb8;" horiz-adv-x="1024" d="M370 -439q116 11 180.5 40t64.5 79q0 26 -17 40.5t-46 23t-64.5 11t-74.5 2.5q-11 15 -17 26.5t-18 25.5q56 71 108 140.5t107 138.5q19 -14 41 -25.5t41 -23.5q-30 -39 -62 -80t-63 -84q107 -6 169.5 -52.5t62.5 -132.5q0 -45 -24.5 -87t-74 -74t-127.5 -51.5 t-184 -19.5q0 26 -1 52t-1 51z" />
<glyph unicode="&#xbb;" horiz-adv-x="1059" d="M92 763l123 86l355 -385v-81l-353 -385l-123 90l222 335zM492 763l123 86l355 -385v-81l-355 -385l-120 90l219 335z" />
<glyph unicode="&#x2c6;" horiz-adv-x="1194" d="M172 1225l331 324h187l336 -322l-76 -88l-355 215l-350 -215z" />
<glyph unicode="&#x2da;" horiz-adv-x="1199" d="M346 1436q0 52 20.5 98t56 82t84.5 56.5t106 20.5q56 0 103 -20.5t82 -56.5t53.5 -82t18.5 -98q0 -55 -19.5 -101.5t-54.5 -82t-82 -55t-101 -19.5q-55 0 -105 20.5t-85.5 56t-56 82t-20.5 99.5zM490 1430q0 -45 33 -80.5t90 -35.5q50 0 82 35.5t32 80.5q0 49 -31 86 t-83 37q-51 0 -87 -37t-36 -86z" />
<glyph unicode="&#x2dc;" horiz-adv-x="1194" d="M209 1278q37 103 93.5 149t127.5 46q46 0 94 -13t96.5 -26.5t94.5 -27t85 -13.5l118 86l86 -66q-33 -96 -86 -149t-128 -53q-54 0 -107 13t-101.5 28.5t-90.5 29t-74 13.5l-120 -84z" />
<glyph unicode="&#x401;" horiz-adv-x="1395" d="M92 0v207h148v1066h-146v204h1205v-434h-217v230h-532v-413l495 13v-213l-495 13v-466h558v240h219v-447h-1235zM390 1688q0 52 36 88t85 36q56 0 92.5 -35t36.5 -89q0 -53 -36 -89t-91 -36q-53 0 -88 35.5t-35 89.5zM819 1688q0 52 35.5 88t87.5 36q56 0 92.5 -35 t36.5 -89q0 -53 -36.5 -89t-92.5 -36q-52 0 -87.5 35.5t-35.5 89.5z" />
<glyph unicode="&#x402;" horiz-adv-x="1814" d="M49 1101v376h1424v-376h-217v177h-413v-435q97 37 196.5 54t187.5 17q110 0 202.5 -29t158.5 -87t102.5 -144t36.5 -200q0 -127 -41 -238t-105.5 -201.5t-144 -160t-156.5 -116.5l-127 159q109 90 180 213.5t71 291.5q0 160 -74 226.5t-197 66.5q-62 0 -138.5 -14 t-151.5 -43v-435h166v-203h-626v203h155v1075h-271v-177h-218z" />
<glyph unicode="&#x403;" horiz-adv-x="1330" d="M92 0v203h151v1075h-149v199h1203v-426h-218v227h-529v-1075h203v-203h-661zM589 1688l318 364l158 -168l-375 -300z" />
<glyph unicode="&#x404;" horiz-adv-x="1350" d="M107 733q0 129 30.5 266.5t108.5 249.5t217 184.5t358 72.5q117 0 218.5 -17.5t183.5 -41.5v-391h-221v196q-37 10 -83 15.5t-92 5.5q-94 0 -165 -30t-120.5 -84.5t-76 -131.5t-30.5 -167q123 2 263.5 4t262.5 6v-205q-125 2 -265 4t-263 2q2 -103 26.5 -186t76 -141 t133.5 -89t199 -31q29 0 72 3t91 9.5t97.5 14t92.5 18.5l47 -215q-45 -17 -102.5 -31.5t-120 -22.5t-126 -12.5t-119.5 -4.5q-203 0 -336 58t-212.5 159t-112 237.5t-32.5 295.5z" />
<glyph unicode="&#x405;" horiz-adv-x="1319" d="M88 428h218q0 -43 1 -81.5t1 -81.5q73 -33 152.5 -44.5t141.5 -11.5q84 0 140 17t89 45t48.5 64.5t15.5 72.5q0 52 -24 87.5t-66 60.5t-99 43t-125 35q-105 26 -193.5 59.5t-153 81.5t-101 115t-36.5 161q0 107 40.5 190.5t115 140t177.5 86.5t226 30q107 0 235.5 -20 t230.5 -74q0 -84 1.5 -166.5t1.5 -166.5h-220q0 43 -1 84t-1 84q-47 19 -116 27.5t-120 8.5q-129 0 -189.5 -53.5t-60.5 -137.5q0 -46 21.5 -77t61.5 -55.5t99 -44t136 -39.5q92 -26 183 -56t161 -78t113 -122t43 -186q0 -114 -43 -199t-123 -139.5t-194 -81.5t-253 -27 q-132 0 -270.5 22.5t-261.5 80.5q0 86 -1 172t-1 174z" />
<glyph unicode="&#x406;" horiz-adv-x="900" d="M150 0v205h147v1068h-147v206h601v-206h-147v-1068h147v-205h-601z" />
<glyph unicode="&#x407;" horiz-adv-x="900" d="M107 1688q0 52 37 88t86 36q56 0 92.5 -35t36.5 -89q0 -53 -36.5 -89t-90.5 -36t-89.5 35.5t-35.5 89.5zM150 0v205h147v1068h-147v206h601v-206h-147v-1068h147v-205h-601zM538 1688q0 52 35.5 88t86.5 36q56 0 93 -35t37 -89q0 -53 -37 -89t-93 -36q-51 0 -86.5 35.5 t-35.5 89.5z" />
<glyph unicode="&#x408;" horiz-adv-x="941" d="M-41 -181q127 58 203 111t117 114t54 135.5t13 173.5v920h-194v206h671v-206h-169v-929q0 -305 -159.5 -482.5t-461.5 -251.5z" />
<glyph unicode="&#x409;" horiz-adv-x="2235" d="M33 181q120 45 192 117t110.5 181.5t50.5 263.5t12 361v174h-191v201h1264v-201h-157v-379h303q114 0 212 -29t168.5 -85t111.5 -141t41 -197q0 -114 -36.5 -198.5t-101 -139.5t-153.5 -82t-197 -27h-796v203h140v1075h-327v-119q0 -234 -17 -435t-77 -357t-173 -260.5 t-307 -143.5zM1314 203h275q103 0 171 63t68 186q0 61 -20.5 108t-55 78t-81 46t-95.5 15h-262v-496z" />
<glyph unicode="&#x40a;" horiz-adv-x="2311" d="M97 0v203h151v1075h-151v199h589v-199h-132v-394h528v394h-140v201h605v-201h-156v-390h302q114 0 211.5 -27.5t168.5 -83t112 -138.5t41 -194q0 -109 -35.5 -193t-100.5 -140t-154 -84t-196 -28h-794v203h136v489h-528v-489h132v-203h-589zM1391 203h275q103 0 170 60.5 t67 183.5q0 62 -20 108.5t-55 77t-80 44t-96 13.5h-261v-487z" />
<glyph unicode="&#x40b;" horiz-adv-x="1928" d="M54 1101v376h1415v-376h-217v177h-403v-429q95 31 195 49t193 18q97 0 182 -20t148 -64t100.5 -114.5t37.5 -171.5v-343h142v-203h-585v203h136v300q0 56 -18.5 94.5t-50.5 62.5t-77.5 34t-98.5 10q-82 0 -164 -20.5t-140 -47.5v-433h146v-203h-610v203h159v1075h-273 v-177h-217z" />
<glyph unicode="&#x40c;" horiz-adv-x="1549" d="M92 0v203h146v1075h-146v199h596v-199h-142v-1075h142v-203h-596zM613 714v94l400 571q43 69 91.5 94t112.5 23q123 0 230 -55l-17 -171l-187 -16l-351 -469l411 -570l201 -20v-171q-54 -21 -120 -32t-106 -11q-82 -4 -134 18t-95 85zM699 1693l318 363l157 -168 l-374 -299z" />
<glyph unicode="&#x40e;" horiz-adv-x="1434" d="M26 1275v204h540v-204h-127l168 -397l120 -310h10l117 314l152 393h-133v204h531v-204h-109l-439 -1066q-54 -129 -129 -183t-191 -54q-50 0 -122 7.5t-176 37.5l48 198q59 -12 100.5 -18t73.5 -6q45 0 77.5 23.5t55.5 82.5l35 86h-84l-409 892h-109zM324 1861l125 96 q70 -92 144 -141t134 -49q19 0 47 3.5t68 20.5t91.5 53t117.5 100l84 -81q-103 -158 -212.5 -218.5t-204.5 -60.5q-62 0 -118 23t-104.5 60.5t-91.5 87t-80 106.5z" />
<glyph unicode="&#x40f;" horiz-adv-x="1689" d="M90 0v200h150v1075h-150v202h594v-202h-136v-1075h591v1075h-133v202h592v-202h-149v-1075h149v-200h-632v-408h-237v408h-639z" />
<glyph unicode="&#x410;" horiz-adv-x="1582" d="M43 0v203h119l447 1274h380l433 -1274h117v-203h-565v203h136l-65 205h-526q-13 -40 -33 -98t-32 -107h139v-203h-550zM585 607h400l-162 513q-6 29 -14.5 55.5t-16.5 57.5h-7l-34 -115q-17 -53 -39 -120t-44.5 -135.5t-44 -135.5t-38.5 -120z" />
<glyph unicode="&#x411;" horiz-adv-x="1465" d="M92 0v203h146v1075h-146v199h1145v-365h-217v166h-474v-379h303q117 0 214.5 -27t168.5 -82t110 -136.5t39 -193.5q0 -115 -36 -200.5t-99.5 -143.5t-152.5 -87t-198 -29h-803zM546 203h281q101 0 168.5 68.5t67.5 186.5q0 125 -71 183t-181 58h-265v-496z" />
<glyph unicode="&#x412;" horiz-adv-x="1474" d="M88 0v203h155v1070h-149v204h758q247 0 367.5 -104.5t120.5 -286.5q0 -31 -7.5 -71.5t-28 -84.5t-57 -85t-96.5 -69v-2q69 -24 113.5 -65.5t71.5 -90t38 -101.5t11 -100q0 -95 -35.5 -172t-97.5 -132t-148.5 -84t-187.5 -29h-828zM552 203h271q127 0 184.5 67.5 t57.5 162.5q0 92 -59.5 161t-182.5 69h-271v-460zM552 858h244q109 0 169.5 57t60.5 150q0 92 -55 150t-175 58h-244v-415z" />
<glyph unicode="&#x413;" horiz-adv-x="1330" d="M92 0v203h151v1075h-149v199h1203v-426h-218v227h-529v-1075h203v-203h-661z" />
<glyph unicode="&#x414;" horiz-adv-x="1664" d="M43 195l125 8q82 79 132.5 182t79 227.5t39.5 268t11 301.5v96h-163v199h1282v-199h-149v-1075l153 -8v-575h-228v380h-1052v-380h-230v575zM486 203h606v1075h-393v-115q0 -338 -45 -574t-168 -386z" />
<glyph unicode="&#x415;" horiz-adv-x="1395" d="M92 0v207h148v1066h-146v204h1205v-434h-217v230h-532v-413l495 13v-213l-495 13v-466h558v240h219v-447h-1235z" />
<glyph unicode="&#x416;" horiz-adv-x="2233" d="M51 24v171l201 20l372 570l-357 469l-187 16l-18 171q107 55 231 55q64 2 112.5 -23.5t91.5 -93.5l406 -571v-94l-398 -630q-43 -62 -94.5 -85t-133.5 -18q-41 0 -106.5 10.5t-119.5 32.5zM825 0v200h143v1075h-143v200h585v-200h-142v-1075h142v-200h-585zM1331 714v94 l400 571q43 69 91.5 94t112.5 23q123 0 230 -55l-17 -171l-187 -16l-350 -469l380 -570l200 -20v-171q-53 -21 -118.5 -32t-106.5 -11q-82 -4 -133.5 18t-94.5 85z" />
<glyph unicode="&#x417;" horiz-adv-x="1319" d="M66 80l65 199q117 -30 212.5 -48t163.5 -18q193 0 290.5 63.5t97.5 185.5q0 109 -81 168.5t-212 59.5h-189v192h172q66 0 118 18t86 48.5t51.5 68t17.5 77.5q0 109 -76 152.5t-199 43.5q-60 0 -120.5 -11t-109.5 -27v-214h-226v372q56 26 121.5 44.5t131 30t128 17.5 t112.5 6q107 0 207 -18.5t177.5 -62.5t124.5 -118t47 -187q0 -43 -14.5 -88t-44 -87t-71.5 -78t-98 -58v-3q129 -43 199 -136t70 -210q0 -121 -50.5 -209.5t-135.5 -149t-199 -89.5t-243 -29q-49 0 -116 4.5t-137.5 15t-140.5 28.5t-129 47z" />
<glyph unicode="&#x418;" horiz-adv-x="1728" d="M86 0v200h157v1075h-153v200h602v-200h-146v-742h4l640 684v58h-162v200h615v-200h-155v-1075h155v-200h-600v200h147v752h-6q-161 -174 -318.5 -344.5t-319.5 -340.5v-67h144v-200h-604z" />
<glyph unicode="&#x419;" horiz-adv-x="1728" d="M86 0v200h157v1075h-153v200h602v-200h-146v-742h4l640 684v58h-162v200h615v-200h-155v-1075h155v-200h-600v200h147v752h-6q-161 -174 -318.5 -344.5t-319.5 -340.5v-67h144v-200h-604zM464 1892l125 97q69 -95 143 -141t132 -46q19 0 48.5 2t69.5 18.5t91.5 52 t118.5 99.5l83 -82q-103 -157 -212 -217t-205 -60q-62 0 -118 22.5t-104.5 60.5t-91.5 88t-80 106z" />
<glyph unicode="&#x41a;" horiz-adv-x="1549" d="M92 0v203h146v1075h-146v199h596v-199h-142v-1075h142v-203h-596zM613 714v94l400 571q43 69 91.5 94t112.5 23q123 0 230 -55l-17 -171l-187 -16l-351 -469l411 -570l201 -20v-171q-54 -21 -120 -32t-106 -11q-82 -4 -134 18t-95 85z" />
<glyph unicode="&#x41b;" horiz-adv-x="1623" d="M33 181q120 45 192 117t110.5 181.5t50.5 263.5t12 361v174h-191v201h1309v-201h-148v-1075h148v-203h-591v203h133v1075h-379v-119q0 -234 -17 -435t-77 -357t-173 -260.5t-307 -143.5z" />
<glyph unicode="&#x41c;" horiz-adv-x="2070" d="M74 0v203h148v1070h-148v204h543q31 -66 66 -144.5t72 -164.5q45 -99 91 -204.5t90 -206.5q30 -62 53.5 -119t42.5 -107h11q24 50 43.5 99t40.5 97q10 26 31.5 77.5t50 115t58.5 134.5t60 138q41 92 73 168t49 117h540v-204h-136v-1070h136v-203h-567v203h127v868h-5 q-27 -58 -51 -117t-48 -117q-31 -72 -69 -160t-77 -175t-72 -163.5t-53 -123.5h-271q-84 177 -157 340t-157 350q-17 41 -35 82t-35 84h-8q0 -219 -1 -435.5t-1 -432.5h138v-203h-573z" />
<glyph unicode="&#x41d;" horiz-adv-x="1689" d="M90 0v205h150v1068h-150v204h594v-204h-136v-409h591v409h-133v204h592v-204h-149v-1068h149v-205h-592v205h133v466h-591v-466h136v-205h-594z" />
<glyph unicode="&#x41e;" horiz-adv-x="1590" d="M107 735q0 160 40 299.5t124 245t215 166t316 60.5t315 -61.5t211.5 -166t118.5 -242.5t37 -296q0 -164 -43 -302.5t-129.5 -241t-213 -160t-296.5 -57.5q-180 0 -311.5 54.5t-216.5 154.5t-126 239t-41 308zM433 733q0 -256 84.5 -394.5t284.5 -138.5q95 0 161.5 40.5 t109.5 111.5t63.5 168.5t20.5 214.5q0 103 -14 202t-54 176t-109 124t-178 47t-181.5 -46t-114.5 -123t-57.5 -175.5t-15.5 -206.5z" />
<glyph unicode="&#x41f;" horiz-adv-x="1689" d="M92 0v203h148v1072h-148v204h1508v-204h-149v-1072h149v-203h-594v203h133v1072h-589v-1072h136v-203h-594z" />
<glyph unicode="&#x420;" horiz-adv-x="1360" d="M92 0v205h144v1068h-144v206h704q252 0 378.5 -121t126.5 -328q0 -80 -25.5 -161t-84 -147t-149 -108t-219.5 -42h-279v-367h191v-205h-643zM544 772h203q47 0 90 14t74 44t49.5 76t18.5 114q0 131 -62.5 192t-179.5 61h-193v-501z" />
<glyph unicode="&#x421;" horiz-adv-x="1338" d="M107 735q0 129 30.5 266.5t110 249.5t219.5 184.5t356 72.5q119 0 215.5 -16.5t178.5 -44.5v-415h-217v222q-43 10 -87.5 14.5t-81.5 4.5q-108 0 -184.5 -37.5t-123.5 -107.5t-68.5 -167.5t-21.5 -218.5q0 -131 22.5 -228t74 -161.5t136.5 -95.5t207 -31q26 0 68 2t89 7 t96.5 14t90.5 22l47 -215q-45 -17 -101.5 -32.5t-118 -24.5t-124 -14.5t-118.5 -5.5q-202 0 -336.5 59t-214 161t-112 239.5t-32.5 296.5z" />
<glyph unicode="&#x422;" horiz-adv-x="1354" d="M35 1032v447h1288v-447h-217v241h-273v-1068h173v-205h-655v205h176v1068h-277l2 -241h-217z" />
<glyph unicode="&#x423;" horiz-adv-x="1434" d="M26 1275v204h540v-204h-127l168 -397l120 -310h10l117 314l152 393h-133v204h531v-204h-109l-439 -1066q-54 -129 -129 -183t-191 -54q-50 0 -122 7.5t-176 37.5l48 198q59 -12 100.5 -18t73.5 -6q45 0 77.5 23.5t55.5 82.5l35 86h-84l-409 892h-109z" />
<glyph unicode="&#x424;" horiz-adv-x="1876" d="M86 759q0 121 50.5 230.5t143 193t222.5 136.5t292 62v96h298l2 -98q166 -9 295 -62t218.5 -135.5t136.5 -190t47 -226.5q0 -129 -50.5 -238.5t-142.5 -192t-220 -132.5t-284 -58l-2 -144h-298v144q-164 6 -295 53.5t-222.5 128t-141 190.5t-49.5 243zM390 755 q0 -170 106 -270t298 -122v794q-93 -8 -168.5 -43t-128 -87.5t-80 -122t-27.5 -149.5zM1094 363q78 7 149 39.5t124 84t85 121t32 151.5q0 74 -23 142.5t-70 123t-121 90.5t-176 42v-794z" />
<glyph unicode="&#x425;" horiz-adv-x="1517" d="M60 0v207h129l373 556l-336 507h-162v209h631v-209h-116l217 -339l228 339h-125v209h542v-209h-130l-369 -517l369 -546h147l3 -207h-636v207h123l-236 372l-238 -372h126v-207h-540z" />
<glyph unicode="&#x426;" horiz-adv-x="1689" d="M88 0v200h150v1075h-150v202h593v-202h-135v-1075h591v1075h-133v202h592v-202h-149v-1075h192v-578h-231v378h-1320z" />
<glyph unicode="&#x427;" horiz-adv-x="1599" d="M51 1275v200h585v-200h-133v-280q0 -120 66.5 -166.5t179.5 -50.5q75 0 153.5 15t146.5 40v442h-133v200h586v-200h-148v-1075h148v-200h-599v200h146v413q-88 -24 -176 -37.5t-176 -13.5q-101 0 -191.5 19t-159.5 64t-110 117.5t-41 179.5v333h-144z" />
<glyph unicode="&#x428;" horiz-adv-x="2304" d="M92 0v200h148v1075h-148v202h579v-202h-131v-1075h462v1075h-124v202h550v-202h-125v-1075h462v1075h-126v202h575v-202h-148v-1075h148v-200h-2122z" />
<glyph unicode="&#x429;" horiz-adv-x="2304" d="M92 0v200h148v1075h-148v202h579v-202h-131v-1075h462v1075h-124v202h550v-202h-125v-1075h462v1075h-126v202h575v-202h-148v-1075h187v-580h-228v380h-1933z" />
<glyph unicode="&#x42a;" horiz-adv-x="1808" d="M39 1060v417h993v-199h-144l-2 -379h300q115 0 212.5 -29t169 -85t112 -141t40.5 -197q0 -114 -35 -198.5t-100 -139.5t-154 -82t-196 -27h-809v203h153v1075h-323v-218h-217zM886 203h275q101 0 170 63t69 186q0 61 -20.5 108t-56 78t-80.5 46t-96 15h-261v-496z" />
<glyph unicode="&#x42b;" horiz-adv-x="2177" d="M92 0v203h153v1075h-153v201h616v-201h-156v-379h304q114 0 212 -29t168.5 -85t111.5 -141t41 -197q0 -114 -36.5 -198.5t-101.5 -139.5t-153.5 -82t-196.5 -27h-809zM552 203h275q103 0 171.5 63t68.5 186q0 61 -20.5 108t-56.5 78t-81 46t-96 15h-261v-496zM1482 0v203 h146v1075h-146v199h599v-199h-146v-1075h146v-203h-599z" />
<glyph unicode="&#x42c;" horiz-adv-x="1485" d="M103 0v203h153v1075h-153v201h615v-201h-154v-379h302q115 0 212.5 -29t168.5 -85t112 -141t41 -197q0 -114 -36.5 -198.5t-101 -139.5t-153.5 -82t-198 -27h-808zM564 203h275q103 0 170.5 63t67.5 186q0 61 -20.5 108t-55.5 78t-80 46t-98 15h-259v-496z" />
<glyph unicode="&#x42d;" horiz-adv-x="1336" d="M74 54q10 55 22.5 108t26.5 107q41 -11 88 -18.5t93.5 -14t87.5 -9.5t68 -3q228 0 338.5 120t112.5 329q-122 -2 -245.5 -4t-246.5 -2v199l492 -6q-4 187 -91 300t-280 113q-48 0 -105 -7.5t-91 -15.5v-196h-219v389q82 28 190 45.5t227 17.5q211 0 346.5 -63.5 t212.5 -167t106.5 -237t29.5 -273.5q0 -150 -37 -291t-121 -250.5t-221.5 -175t-336.5 -65.5q-111 0 -234 17t-213 54z" />
<glyph unicode="&#x42e;" horiz-adv-x="2259" d="M90 0v203h150v1075h-150v199h594v-199h-136v-414h279q15 136 59.5 253.5t124 203t198 135.5t283.5 50q187 0 313 -61.5t203.5 -167t110.5 -244t33 -296.5q0 -164 -39.5 -302t-120 -239.5t-205.5 -158t-295 -56.5q-168 0 -290.5 48.5t-204 138.5t-123 216.5t-49.5 286.5 h-277v-468h136v-203h-594zM1135 731q0 -129 18.5 -228t60.5 -167.5t109.5 -104.5t168.5 -36q95 0 161.5 41t107.5 113t59.5 170.5t18.5 215.5q0 103 -13.5 202t-49.5 177t-105 125t-179 47q-109 0 -179 -46t-108.5 -124t-54 -177.5t-15.5 -207.5z" />
<glyph unicode="&#x42f;" horiz-adv-x="1515" d="M33 10v168l170 25l236 457q-78 21 -128.5 62t-82 90.5t-43 104.5t-11.5 107q0 96 30 179t90.5 144t153 96.5t217.5 35.5h733v-201h-142v-1075h146v-203h-596v203h144v408h-238l-236 -478q-17 -39 -36 -67.5t-43.5 -49t-56.5 -30.5t-80 -10q-18 0 -46.5 2.5t-59.5 7 t-63.5 10.5t-57.5 14zM492 1032q0 -71 25 -116.5t61.5 -70t82 -33t88.5 -8.5h201v474h-217q-103 0 -172 -62.5t-69 -183.5z" />
<glyph unicode="&#x430;" horiz-adv-x="1214" d="M69 284q0 59 24 114.5t70 97.5t116 68.5t160 32.5l294 20v52q0 92 -39.5 140.5t-153.5 48.5q-78 0 -165 -15.5t-158 -38.5q-12 45 -25.5 91.5t-23.5 93.5q92 41 212.5 62.5t232.5 21.5q93 0 168 -18.5t126.5 -61.5t79.5 -112.5t28 -170.5v-510h161l16 -161 q-78 -35 -153 -45.5t-128 -10.5q-69 0 -114.5 25t-47.5 111q-2 0 -2 1t-3 1q-53 -52 -107 -81.5t-100.5 -42t-85 -15.5t-59.5 -3q-97 0 -160.5 30t-99 76t-49.5 99.5t-14 99.5zM378 318q0 -75 34.5 -110.5t114.5 -35.5q49 0 104 25t98 65v216l-198 -20q-77 -9 -115 -47.5 t-38 -92.5z" />
<glyph unicode="&#x431;" horiz-adv-x="1231" d="M86 577.5v97.5q2 119 10.5 188.5t22.5 117.5q43 166 160 280.5t306 189.5q35 13 87 35t109.5 44.5t110 44t84.5 38.5q19 -43 40.5 -86t41.5 -86q-69 -41 -135.5 -70t-114.5 -48q-100 -39 -182 -78t-143.5 -90t-100 -122.5t-53.5 -174.5q4 0 6 -2q56 82 148.5 130 t206.5 48q125 0 211 -40t139.5 -109.5t77 -165t23.5 -208.5q0 -103 -28.5 -197.5t-92 -168.5t-165.5 -118t-251 -44q-140 0 -236.5 40.5t-157 111t-88.5 159.5t-34 186q-2 49 -2 97.5zM390 501q0 -58 8 -114t32 -101.5t69 -72t116 -26.5q66 0 108 26.5t67 72t35 104.5 t10 121t-9 120.5t-31.5 103.5t-64.5 72.5t-106 27.5t-110 -31.5t-72.5 -80t-39 -108t-12.5 -114.5z" />
<glyph unicode="&#x432;" horiz-adv-x="1197" d="M66 0v195h117v669h-114v190h668q183 0 272.5 -75.5t89.5 -204.5q0 -54 -26 -113t-94 -102q45 -19 75 -49t47 -64.5t23.5 -71t6.5 -68.5q0 -72 -28 -128.5t-77.5 -95.5t-116 -60.5t-146.5 -21.5h-697zM471 189h224q74 0 110 40t36 95q0 54 -35.5 88.5t-110.5 34.5h-224 v-258zM471 632h210q56 0 93 33.5t37 87.5q0 53 -32 85t-108 32h-200v-238z" />
<glyph unicode="&#x433;" horiz-adv-x="1077" d="M78 0v193h115v671h-111v190h952v-362h-197v172h-347v-671h157v-193h-569z" />
<glyph unicode="&#x434;" horiz-adv-x="1362" d="M43 189l121 6q55 54 86 125.5t46.5 150.5t19.5 164t4 171v58h-133v190h976l-2 -859l117 -6v-507h-227v318h-778v-318h-230v507zM468 195h396v669h-267v-72q0 -82 -4 -164t-16.5 -159t-39 -146t-69.5 -128z" />
<glyph unicode="&#x435;" horiz-adv-x="1143" d="M86 525q0 86 22.5 183.5t81 180.5t158 136.5t252.5 53.5q152 0 244 -50t140 -127t63.5 -167t15.5 -169v-108h-676q-2 -134 56 -198.5t206 -64.5q84 0 163.5 17.5t161.5 49.5l64 -180q-102 -56 -215 -79.5t-221 -23.5q-158 0 -257.5 46t-157.5 122.5t-79.5 174 t-21.5 203.5zM392 640h396q0 46 -10 88t-30.5 73.5t-57.5 50t-90 18.5q-54 0 -91.5 -19.5t-63.5 -52.5t-38.5 -73.5t-14.5 -84.5z" />
<glyph unicode="&#x436;" horiz-adv-x="1872" d="M60 17v151l140 21l262 370l-232 305l-121 9l-15 157q37 19 90.5 32t103.5 13q60 0 100 -20.5t74 -71.5l285 -411v-65l-304 -449q-32 -45 -73 -62t-108 -17q-38 2 -98.5 11.5t-103.5 26.5zM675 862v192h525v-192h-116v-671h118v-191h-523v191h109v671h-113zM1120 507v65 l293 411q37 51 75.5 71.5t98.5 20.5q49 0 102 -13t90 -32l-14 -157l-122 -9l-241 -305l273 -370l140 -21v-151q-21 -9 -48 -16t-54 -11.5t-53 -7.5t-45 -3q-69 0 -109.5 17t-73.5 62z" />
<glyph unicode="&#x437;" horiz-adv-x="1044" d="M43 54l54 191q86 -29 164.5 -40.5t144.5 -11.5q245 0 246 156q0 38 -17.5 64t-43 39.5t-57 19.5t-60.5 6h-141v160h116q33 0 64 5.5t55.5 18.5t41 36.5t16.5 60.5q0 45 -40 79.5t-126 34.5q-41 0 -84 -5.5t-88 -20.5v-120h-200v277q90 37 199 57.5t218 20.5 q213 0 320.5 -78.5t107.5 -203.5q0 -78 -44 -135.5t-119 -90.5v-6q86 -26 136.5 -95t50.5 -151q0 -159 -131.5 -250t-365.5 -91q-62 0 -123.5 6.5t-116 16t-99.5 23.5t-78 27z" />
<glyph unicode="&#x438;" horiz-adv-x="1426" d="M51 862v189h439v-645h9v-2q0 2 15 25t40 58.5t55.5 81.5t67.5 98l267 384h286q0 -213 1.5 -422.5t1.5 -423.5h141v-177q-55 -24 -117.5 -34.5t-112.5 -10.5q-69 0 -110 19t-64.5 51.5t-31 72.5t-7.5 81v419h-10q-11 -17 -50.5 -76.5t-94.5 -134.5l-296 -415h-287v862 h-142z" />
<glyph unicode="&#x439;" horiz-adv-x="1426" d="M51 862v189h439v-645h9v-2q0 2 15 25t40 58.5t55.5 81.5t67.5 98l267 384h286q0 -213 1.5 -422.5t1.5 -423.5h141v-177q-55 -24 -117.5 -34.5t-112.5 -10.5q-69 0 -110 19t-64.5 51.5t-31 72.5t-7.5 81v419h-10q-11 -17 -50.5 -76.5t-94.5 -134.5l-296 -415h-287v862 h-142zM303 1445l125 96q70 -94 143.5 -140.5t132.5 -46.5q18 0 47 2.5t69 18.5t92 52t118 100l84 -82q-103 -158 -211.5 -217.5t-205.5 -59.5q-62 0 -118 22.5t-104.5 60t-91.5 88t-80 106.5z" />
<glyph unicode="&#x43a;" horiz-adv-x="1285" d="M51 864v190h448v-861h118v-193h-546v193h126v671h-146zM533 509v67l302 407q34 51 73.5 71.5t100.5 20.5q49 0 101.5 -13t89.5 -32l-16 -157l-119 -9l-248 -302l275 -373l141 -21v-151q-41 -17 -101.5 -26.5t-99.5 -11.5q-69 0 -108.5 17t-71.5 62z" />
<glyph unicode="&#x43b;" horiz-adv-x="1311" d="M28 172q80 35 129.5 80t76 113t35 162.5t8.5 223.5v113h-160v190h1003v-861h127v-193h-548v193h120v671h-267v-68q0 -158 -14.5 -294.5t-62 -245t-132.5 -184.5t-224 -111z" />
<glyph unicode="&#x43c;" horiz-adv-x="1707" d="M56 862v192h473q9 -14 30.5 -54.5t50 -91t59 -106t55.5 -103.5q17 -30 36.5 -67t38 -72t32.5 -62t21 -38h8q2 6 15 32.5t30.5 60.5t36.5 73t37 71q24 47 54 103t56.5 107.5t48 91t30.5 55.5h453v-192h-131v-657h144v-177q-54 -24 -113.5 -34.5t-112.5 -10.5 q-69 0 -109.5 18t-61 50.5t-27 75.5t-8.5 92v405h-8q-11 -19 -23 -44.5t-25 -51t-25.5 -50t-21.5 -41.5q-36 -64 -79.5 -145t-79.5 -159h-168q-4 11 -22.5 43.5t-42 75.5t-50.5 90.5t-50 87.5q-15 29 -33 61t-32.5 61t-26.5 52.5t-16 31.5h-11v-636h-291v862h-141z" />
<glyph unicode="&#x43d;" horiz-adv-x="1367" d="M43 864v190h435v-418h410v418h298v-847h143v-179q-53 -24 -116.5 -35.5t-113.5 -11.5q-116 0 -163.5 47.5t-47.5 149.5v284h-410v-462h-302v864h-133z" />
<glyph unicode="&#x43e;" horiz-adv-x="1233" d="M86 525q0 111 31 211.5t96.5 175.5t167 120t241.5 45q141 0 242.5 -44t163.5 -120t91.5 -176.5t29.5 -209.5t-30.5 -208.5t-95 -174.5t-166.5 -119t-248 -44q-140 0 -240 42.5t-162.5 116t-91.5 172.5t-29 213zM394 525q0 -69 8.5 -129.5t33 -105.5t68.5 -72t116 -27 q66 0 110 28.5t67.5 75.5t33.5 106.5t10 123.5q0 60 -9 121.5t-32.5 108.5t-65.5 77t-108 30q-70 0 -115 -29t-70.5 -76t-36 -108.5t-10.5 -123.5z" />
<glyph unicode="&#x43f;" horiz-adv-x="1383" d="M51 854v197h1276v-197h-147v-649h154v-177q-54 -24 -123.5 -35.5t-118.5 -11.5q-66 0 -107 16t-63.5 42.5t-31 64.5t-8.5 83v667h-394v-854h-295v854h-142z" />
<glyph unicode="&#x440;" horiz-adv-x="1305" d="M43 -254h146v1108h-146v200h428v-95l5 -2q34 28 74.5 49.5t84.5 35.5t86 21.5t77 7.5q123 0 205.5 -42t131.5 -113t70.5 -165.5t21.5 -202.5q0 -123 -23.5 -228t-77 -180.5t-140.5 -118t-212 -42.5q-54 0 -133 13.5t-153 50.5v-297h157v-200h-602v200zM488 262 q39 -24 100.5 -43t119.5 -19q41 0 79 14t68.5 51.5t50 104.5t19.5 174q0 94 -16.5 153.5t-45 92.5t-67.5 45t-84 12q-56 0 -120.5 -25.5t-103.5 -56.5v-503z" />
<glyph unicode="&#x441;" horiz-adv-x="1061" d="M86 517q0 92 21.5 190.5t79.5 180.5t161.5 135.5t268.5 53.5q89 0 175 -13t158 -40v-318h-201v141q-60 11 -102 11q-136 0 -198 -86t-62 -247q0 -179 70 -253.5t192 -74.5q75 0 151 15.5t142 39.5l56 -190q-74 -37 -180 -59t-216 -22q-153 0 -252.5 42.5t-158 115 t-82 170t-23.5 208.5z" />
<glyph unicode="&#x442;" horiz-adv-x="1167" d="M43 712v342h1082v-342h-200v152h-192v-671h147v-193h-585v193h140v671h-192v-152h-200z" />
<glyph unicode="&#x443;" d="M33 843v211h332l171 -559l90 -304h10q24 76 48 150t47 149l123 368h-121v196h508v-196h-104q-94 -267 -191 -531.5t-193 -529.5q-19 -55 -45.5 -103.5t-65 -82.5t-94.5 -53.5t-140 -19.5q-32 0 -96 5t-166 38q8 49 16 96.5t19 96.5q45 -8 86 -13.5t77 -5.5q50 0 82 17 t54.5 51.5t41 85t40.5 115.5h-143l-277 819h-109z" />
<glyph unicode="&#x444;" horiz-adv-x="1629" d="M86 527q0 119 39 217.5t113 171.5t182.5 115t248.5 46v273h-150v189h440v-462q143 -2 252 -42t183.5 -109.5t112 -167.5t37.5 -216q0 -119 -36.5 -219.5t-109.5 -174.5t-182.5 -118.5t-256.5 -46.5v-245h161v-192h-599v192h148v245q-166 7 -278 54t-179.5 123t-96.5 171 t-29 196zM374 529q0 -161 69.5 -253.5t225.5 -97.5v698q-80 -4 -135.5 -33.5t-91.5 -76t-52 -108t-16 -129.5zM959 178q146 7 221.5 100.5t75.5 248.5q0 71 -14.5 133t-48.5 108.5t-91 75.5t-143 32v-698z" />
<glyph unicode="&#x445;" horiz-adv-x="1262" d="M51 0l3 191h81l312 373l-221 302h-157l2 194h364l238 -333l115 141h-100v192h488v-192h-107l-287 -328l259 -349h149v-191h-564v191h75l-131 179l-149 -179h74v-191h-444z" />
<glyph unicode="&#x446;" horiz-adv-x="1412" d="M76 862v192h425v-859h404v667h-103v192h516v-192h-112v-667h132v-511h-230v316h-1030v195h127v667h-129z" />
<glyph unicode="&#x447;" horiz-adv-x="1350" d="M37 862v194h443v-297q0 -96 33 -140.5t121 -44.5q56 0 111 11.5t104 36.5v434h302v-856h139v-176q-71 -28 -133.5 -36.5t-102.5 -8.5q-103 0 -154 55.5t-51 141.5v245q-73 -37 -156.5 -52.5t-163.5 -15.5q-94 0 -161 24.5t-109 71t-60 111t-18 141.5v161h-144z" />
<glyph unicode="&#x448;" horiz-adv-x="1915" d="M69 860v191h428v-858h303v667h-88v191h478v-191h-94v-667h312v667h-90v191h510v-191h-119v-667h130v-193h-1768v193h126v667h-128z" />
<glyph unicode="&#x449;" horiz-adv-x="1921" d="M69 860v191h428v-858h303v667h-88v191h478v-191h-94v-667h312v667h-90v191h510v-191h-119v-667h132v-509h-228v316h-1542v193h126v667h-128z" />
<glyph unicode="&#x44a;" horiz-adv-x="1494" d="M30 692v362h746v-396h273q82 0 153 -21.5t123 -63.5t81.5 -102t29.5 -140t-26.5 -141t-76 -103t-117 -64.5t-147.5 -22.5h-591v864h-246v-172h-202zM776 185h205q75 0 117.5 40t42.5 108q0 78 -47 114.5t-126 36.5h-192v-299z" />
<glyph unicode="&#x44b;" horiz-adv-x="1795" d="M51 866v188h444v-398h273q81 0 152 -21.5t122.5 -62.5t82 -102.5t30.5 -138.5q0 -80 -28 -141t-76.5 -103t-115.5 -64.5t-145 -22.5h-593v866h-146zM495 185h204q78 0 119.5 40t41.5 108q0 78 -48.5 114.5t-125.5 36.5h-191v-299zM1172 862v194h412v-849h154v-179 q-54 -24 -121.5 -34.5t-120.5 -10.5q-120 0 -165 57t-45 167v655h-114z" />
<glyph unicode="&#x44c;" horiz-adv-x="1214" d="M51 866v188h444v-398h273q81 0 152 -21.5t122.5 -62.5t82 -102.5t30.5 -138.5q0 -80 -28 -141t-76.5 -103t-115.5 -64.5t-145 -22.5h-593v866h-146zM495 185h204q78 0 119.5 40t41.5 108q0 78 -48.5 114.5t-125.5 36.5h-191v-299z" />
<glyph unicode="&#x44d;" horiz-adv-x="1081" d="M58 64l56 181q67 -25 138.5 -39.5t147.5 -14.5q129 0 199 77.5t74 202.5l-346 -5v156l348 -5q-8 119 -60.5 190t-167.5 71q-34 0 -66 -5t-69 -13v-131h-195l-6 291q76 30 169.5 44.5t183.5 14.5q160 0 260.5 -47t158 -122t79 -171t21.5 -193q0 -109 -27 -211.5 t-89.5 -180.5t-166 -125.5t-257.5 -47.5q-105 0 -206.5 22.5t-178.5 60.5z" />
<glyph unicode="&#x44e;" horiz-adv-x="1771" d="M54 862v194h441v-424h172q12 92 48 174t99.5 142.5t153.5 95.5t210 35q136 0 232 -44t157 -120t90 -176.5t29 -209.5t-29 -209.5t-91 -175.5t-161.5 -119t-238.5 -44q-128 0 -219 37.5t-152.5 104t-92.5 154.5t-39 191h-168v-468h-300v862h-141zM961 525 q0 -69 7.5 -129.5t31.5 -106.5t66 -73t112 -27q62 0 103.5 29.5t64 75.5t31 107.5t8.5 125.5q0 60 -8.5 121.5t-31 109.5t-62.5 78t-105 30q-64 0 -106 -30t-66.5 -78t-34.5 -109.5t-10 -123.5z" />
<glyph unicode="&#x44f;" horiz-adv-x="1260" d="M37 4v166l146 19q14 26 34.5 60.5t42 70t42 69.5t33.5 60q-105 25 -154.5 103t-49.5 172q0 84 29 146.5t79.5 102.5t116 60.5t141.5 20.5l662 2v-194h-110v-655h141v-179q-52 -24 -115.5 -35.5t-115.5 -11.5q-117 0 -162.5 47.5t-47.5 149.5v235h-160 q-13 -27 -36.5 -69.5t-47 -87.5t-47 -87t-37.5 -68q-33 -58 -75.5 -92.5t-121.5 -34.5q-37 0 -87.5 6.5t-99.5 23.5zM423 718q0 -39 15.5 -64.5t39 -41t55 -21.5t60.5 -6h156v283h-166q-76 0 -118 -38t-42 -112z" />
<glyph unicode="&#x451;" horiz-adv-x="1143" d="M86 525q0 86 22.5 183.5t81 180.5t158 136.5t252.5 53.5q152 0 244 -50t140 -127t63.5 -167t15.5 -169v-108h-676q-2 -134 56 -198.5t206 -64.5q84 0 163.5 17.5t161.5 49.5l64 -180q-102 -56 -215 -79.5t-221 -23.5q-158 0 -257.5 46t-157.5 122.5t-79.5 174 t-21.5 203.5zM256 1320q0 53 36.5 89t85.5 36q56 0 92.5 -34.5t36.5 -90.5q0 -52 -35 -87t-92 -35q-53 0 -88.5 35t-35.5 87zM392 640h396q0 46 -10 88t-30.5 73.5t-57.5 50t-90 18.5q-54 0 -91.5 -19.5t-63.5 -52.5t-38.5 -73.5t-14.5 -84.5zM686 1320q0 53 36.5 89 t85.5 36q56 0 94 -34.5t38 -90.5q0 -52 -38 -87t-94 -35q-51 0 -86.5 35t-35.5 87z" />
<glyph unicode="&#x452;" horiz-adv-x="1300" d="M21 1348v191h469v-320h394v-118h-394v-204q82 41 161.5 61.5t148.5 20.5q222 0 320.5 -132.5t98.5 -403.5q0 -107 -22.5 -204t-79.5 -169t-153 -114t-244 -42h-25t-24 2l2 203q64 4 112 18.5t79 50.5t46 98.5t15 158.5q0 99 -16.5 160.5t-45 96.5t-66.5 48t-79 13 q-51 0 -112.5 -18t-115.5 -46v-699h-303v1101h-109v118h109v129h-166z" />
<glyph unicode="&#x453;" horiz-adv-x="1077" d="M78 0v193h115v671h-111v190h952v-362h-197v172h-347v-671h157v-193h-569zM394 1311l316 364l156 -165l-374 -301z" />
<glyph unicode="&#x454;" horiz-adv-x="1061" d="M86 517q0 92 21.5 190.5t79.5 180.5t161.5 135.5t268.5 53.5q89 0 177 -15t163 -42q0 -72 -1.5 -144t-1.5 -147h-199v118q-31 11 -57.5 13t-57.5 2q-104 0 -170 -67.5t-78 -187.5l348 10v-161l-346 4q6 -129 66.5 -200t188.5 -71q75 0 151 16.5t144 39.5l54 -179 q-78 -41 -182 -62t-214 -21q-153 0 -252.5 41.5t-158 115t-82 170t-23.5 207.5z" />
<glyph unicode="&#x455;" horiz-adv-x="1072" d="M69 340h206l4 -125q37 -17 97.5 -27t107.5 -10q82 0 142 27t60 83q0 32 -15 54.5t-39.5 39t-56 27t-66.5 19.5q-77 21 -154.5 45t-139 58.5t-98.5 86t-37 131.5q0 170 122 249t331 79q97 0 199.5 -19.5t181.5 -62.5v-131.5t2 -134.5h-208l-2 120q-33 13 -75 20t-79 7 q-73 0 -120 -28.5t-47 -82.5q0 -26 17 -43.5t43 -31t57 -22t57 -14.5q64 -17 140.5 -39t142 -60t108.5 -100.5t43 -166.5q0 -155 -128 -231t-362 -76q-45 0 -99.5 3t-112 12.5t-114 26t-106.5 41.5v137.5t-2 138.5z" />
<glyph unicode="&#x456;" horiz-adv-x="741" d="M107 854v200h406v-847h154v-179q-52 -24 -120.5 -35.5t-118.5 -11.5q-116 0 -163.5 47.5t-49.5 149.5v676h-108zM181 1368q0 76 50 127.5t126 51.5q73 0 126 -51.5t53 -127.5q0 -73 -53 -125.5t-126 -52.5q-76 0 -126 52.5t-50 125.5z" />
<glyph unicode="&#x457;" horiz-adv-x="741" d="M-8 1305q0 54 36 89.5t86 35.5q56 0 92.5 -34.5t36.5 -90.5q0 -51 -35.5 -87t-90.5 -36q-54 0 -89.5 36t-35.5 87zM101 862v194h412v-849h154v-179q-52 -24 -120.5 -35.5t-118.5 -11.5q-116 0 -162.5 47.5t-48.5 149.5v684h-116zM421 1305q0 54 37 89.5t86 35.5 q56 0 93.5 -34.5t37.5 -90.5q0 -51 -37.5 -87t-93.5 -36q-52 0 -87.5 36t-35.5 87z" />
<glyph unicode="&#x458;" horiz-adv-x="704" d="M-51 -316q88 51 140.5 95.5t80 92.5t36.5 106.5t9 135.5v740h-131v200h433v-929q0 -133 -26.5 -233.5t-84 -174.5t-150 -126.5t-226.5 -91.5zM181 1368q0 76 51.5 127.5t126.5 51.5q35 0 68 -14.5t56.5 -39t39 -56.5t15.5 -69t-15.5 -69.5t-39 -57t-56.5 -38t-68 -13.5 q-75 0 -126.5 52.5t-51.5 125.5z" />
<glyph unicode="&#x459;" horiz-adv-x="1797" d="M33 178q79 35 128.5 80t76.5 112t35 160.5t8 222.5v111h-160v190h956v-396h275q82 0 153 -21.5t122.5 -63.5t82 -102t30.5 -140t-28 -141t-76.5 -103t-116.5 -64.5t-147 -22.5h-592v866l-224 -2v-66q0 -158 -14.5 -294t-61.5 -245t-132.5 -185t-224.5 -111zM1077 185h207 q76 0 118.5 40t42.5 108q0 78 -48.5 114.5t-123.5 36.5h-196v-299z" />
<glyph unicode="&#x45a;" horiz-adv-x="1859" d="M54 864v190h432v-424h357v236h-133v188h429v-407h274q82 0 153 -19t123.5 -59t82.5 -99t30 -139t-28 -141t-76 -103t-116 -64.5t-148 -22.5h-591v466h-357v-466h-299v864h-133zM1139 185h213q72 0 114 37.5t42 106.5q0 77 -46.5 111t-121.5 34h-201v-289z" />
<glyph unicode="&#x45b;" horiz-adv-x="1375" d="M43 1361v178h445v-306h404v-117h-404v-248q84 58 177.5 88.5t175.5 30.5q103 0 168.5 -29t104.5 -77t52.5 -114t13.5 -139v-421h143v-179q-56 -24 -119 -35.5t-114 -11.5q-117 0 -162.5 47.5t-45.5 149.5v384q0 94 -30.5 144.5t-127.5 50.5q-53 0 -119.5 -24.5 t-116.5 -57.5v-675h-303v1116h-109v117h109v128h-142z" />
<glyph unicode="&#x45c;" horiz-adv-x="1285" d="M51 864v190h448v-861h118v-193h-546v193h126v671h-146zM505 1247l316 364l158 -166l-375 -301zM533 509v67l302 407q34 51 73.5 71.5t100.5 20.5q49 0 101.5 -13t89.5 -32l-16 -157l-119 -9l-248 -302l275 -373l141 -21v-151q-41 -17 -101.5 -26.5t-99.5 -11.5 q-69 0 -108.5 17t-71.5 62z" />
<glyph unicode="&#x45e;" d="M45 841v213h333q10 -34 32.5 -102t48 -153t53.5 -176.5t52.5 -172t43 -144t26.5 -89.5h9q8 33 37.5 121t61.5 190t62.5 194.5t42.5 131.5h-116v200h504v-200h-102l-389 -1092q-38 -110 -107 -167t-211 -57q-6 0 -32 1t-65 4t-86.5 11.5t-96.5 26.5l41 214q45 -8 85 -13.5 t77 -5.5q71 0 101 20.5t47 61.5l65 166h-136q-69 205 -132.5 407.5t-131.5 409.5h-117zM269 1461l125 96q69 -94 143 -140.5t132 -46.5q19 0 48.5 2t68.5 18t91 51.5t118 99.5l84 -80q-103 -158 -211.5 -218.5t-204.5 -60.5q-62 0 -118.5 22.5t-104.5 60.5t-91 88.5 t-80 107.5z" />
<glyph unicode="&#x45f;" horiz-adv-x="1412" d="M76 862v192h425v-861h404v669h-103v192h514v-192h-110v-667h27.5t37.5 -1t37.5 -1h29.5v-193h-517v-340h-232v340h-511v193h127v669h-129z" />
<glyph unicode="&#x490;" horiz-adv-x="1330" d="M92 0v203h151v1075h-149v199h985v282h218v-481h-747v-1075h203v-203h-661z" />
<glyph unicode="&#x491;" horiz-adv-x="1069" d="M78 0v193h115v669h-113v192h743v245h203v-437h-536v-669h155v-193h-567z" />
<glyph unicode="&#x4d9;" horiz-adv-x="1143" d="M92 497v75h678q0 132 -58 213t-207 81q-82 0 -162.5 -17.5t-161.5 -48.5l-62 176q103 56 214.5 79.5t218.5 23.5q158 0 257.5 -44t158 -118t80 -173t21.5 -206q0 -89 -22.5 -185.5t-80 -179.5t-157.5 -136.5t-255 -53.5q-152 0 -243.5 53.5t-139.5 133.5t-63.5 168 t-15.5 159zM365 454q0 -119 40 -192t149 -73q56 0 95 21.5t63.5 58.5t36.5 85t14 100h-398z" />
<glyph unicode="&#x2013;" horiz-adv-x="1075" d="M86 460v185h907v-185h-907z" />
<glyph unicode="&#x2014;" horiz-adv-x="2150" d="M107 460v185h1932v-185h-1932z" />
<glyph unicode="&#x2015;" horiz-adv-x="2150" d="M107 460v185h1932v-185h-1932z" />
<glyph unicode="&#x2018;" horiz-adv-x="548" d="M107 1159q0 58 22.5 118.5t61.5 115t88.5 98.5t103.5 70l71 -96q-52 -43 -82 -90.5t-37 -112.5q53 -10 79.5 -47t26.5 -93q0 -62 -46 -108t-118 -46q-88 0 -129 58t-41 133z" />
<glyph unicode="&#x2019;" horiz-adv-x="548" d="M111 1067q52 43 81.5 91t37.5 110q-56 11 -81.5 48.5t-25.5 91.5q0 62 46 108.5t119 46.5q86 0 127 -58t41 -133q0 -57 -22.5 -117.5t-59 -114.5t-87.5 -98t-104 -72z" />
<glyph unicode="&#x201a;" horiz-adv-x="560" d="M103 -207q56 52 85 104t38 113q-64 7 -90.5 47t-26.5 93q0 62 45.5 107.5t120.5 45.5q86 0 128 -57t42 -132q0 -57 -20.5 -116.5t-56 -114.5t-84 -102.5t-106.5 -81.5z" />
<glyph unicode="&#x201c;" horiz-adv-x="905" d="M101 1159q0 60 22.5 120.5t60.5 113t87 96.5t103 72q19 -24 36.5 -48.5t36.5 -47.5q-51 -43 -82.5 -90.5t-37.5 -112.5q53 -10 80.5 -47t27.5 -93q0 -62 -46.5 -108t-119.5 -46q-86 0 -127 58t-41 133zM478 1159q0 58 22.5 118.5t59.5 115t86 98.5t103 70 q19 -24 36 -48.5t38 -47.5q-51 -43 -82 -90.5t-37 -112.5q53 -10 80 -47t27 -93q0 -62 -47.5 -108t-118.5 -46q-89 0 -128 58t-39 133z" />
<glyph unicode="&#x201d;" horiz-adv-x="905" d="M103 1067q53 43 83.5 91t37.5 110q-54 11 -79.5 48.5t-25.5 91.5q0 62 45 108.5t120 46.5q86 0 127 -58t41 -133q0 -57 -23 -117.5t-60.5 -114.5t-87 -98t-103.5 -72zM482 1067q49 43 81 91t37 110q-54 11 -81 48.5t-27 91.5q0 62 47.5 108.5t120.5 46.5q87 0 127 -58 t40 -133q0 -57 -22.5 -117.5t-58.5 -114.5t-86.5 -98t-105.5 -72z" />
<glyph unicode="&#x201e;" horiz-adv-x="962" d="M103 -207q56 52 85 104t38 113q-64 7 -90.5 47t-26.5 93q0 62 45.5 107.5t120.5 45.5q86 0 128 -57t42 -132q0 -57 -20.5 -116.5t-56 -114.5t-84 -102.5t-106.5 -81.5zM509 -207q56 52 86.5 104t34.5 113q-62 7 -87.5 47t-25.5 93q0 62 45 107.5t119 45.5q89 0 131 -57 t42 -132q0 -57 -20.5 -116.5t-56 -114.5t-85 -102.5t-107.5 -81.5z" />
<glyph unicode="&#x2020;" horiz-adv-x="1061" d="M86 858v202h318v424h245v-424h327v-202h-327v-1004h-245v1004h-318z" />
<glyph unicode="&#x2021;" horiz-adv-x="1061" d="M86 234v203h318v421h-318v202h318v424h245v-424h327v-202h-327v-421h327v-203h-327v-380h-245v380h-318z" />
<glyph unicode="&#x2022;" horiz-adv-x="837" d="M144 583q0 57 21.5 108t59 88.5t88 59t106.5 21.5t106.5 -21.5t88.5 -59t59.5 -88.5t21.5 -108q0 -58 -21.5 -109t-59.5 -88t-88 -58.5t-107 -21.5q-56 0 -106.5 21.5t-88 58.5t-59 88t-21.5 109z" />
<glyph unicode="&#x2023;" horiz-adv-x="1087" d="M178 135v906l867 -441z" />
<glyph unicode="&#x2026;" horiz-adv-x="1625" d="M109 144q0 64 48 111.5t116 47.5q66 0 114 -47.5t48 -111.5q0 -69 -48.5 -116t-113.5 -47q-69 0 -116.5 47.5t-47.5 115.5zM643 144q0 64 46 111.5t115 47.5q66 0 114 -47.5t48 -111.5q0 -69 -48 -116t-114 -47t-113.5 47.5t-47.5 115.5zM1192 144q0 64 48 111.5 t112 47.5q70 0 116 -47.5t46 -111.5q0 -69 -47 -116t-113 -47t-114 47.5t-48 115.5z" />
<glyph unicode="&#x2030;" horiz-adv-x="2793" d="M47 1000q0 82 18.5 161.5t62.5 143t118 102t189 38.5q116 0 189 -40t114.5 -103t58 -143t16.5 -159q0 -84 -19.5 -163.5t-63.5 -140t-117 -96.5t-180 -36q-115 0 -189 35t-117 95.5t-61.5 138.5t-18.5 167zM267 998q0 -60 6 -110.5t24.5 -88.5t50.5 -58.5t87 -20.5 q47 0 78 24t48.5 62.5t23.5 89t6 104.5q0 45 -4 96t-20.5 92.5t-47.5 68.5t-84 27q-56 0 -89.5 -27t-51 -67.5t-22.5 -92.5t-5 -99zM546 -43l677 1565h177l-678 -1565h-176zM1120 428q0 82 18.5 161.5t62.5 143t118 102t189 38.5q116 0 189 -39.5t114.5 -103t58 -142 t16.5 -158.5q0 -84 -19.5 -163.5t-63.5 -141t-117 -97.5t-180 -36q-115 0 -189 35t-117 95.5t-61.5 140t-18.5 165.5zM1340 426q0 -57 6 -109t24.5 -89t50.5 -58.5t87 -21.5q47 0 78 23.5t48.5 62.5t23.5 90t6 104q0 46 -4 96t-20.5 92t-47.5 70t-84 28q-56 0 -89.5 -27 t-51 -69t-22.5 -93t-5 -99zM1976 428q0 82 18.5 161.5t62.5 143t118 102t189 38.5q116 0 189 -39.5t114.5 -103t58 -142t16.5 -158.5q0 -84 -19.5 -163.5t-64 -141t-117 -97.5t-180.5 -36q-114 0 -188 35t-117 95.5t-61.5 140t-18.5 165.5zM2196 426q0 -57 6 -109t24.5 -89 t51 -58.5t86.5 -21.5q47 0 78 23.5t48 62.5t23.5 90t6.5 104q0 46 -4 96t-20.5 92t-47.5 70t-84 28q-56 0 -89.5 -27t-51 -69t-22.5 -93t-5 -99z" />
<glyph unicode="&#x2039;" horiz-adv-x="743" d="M119 383v81l355 385l121 -86l-223 -340l221 -335l-122 -90z" />
<glyph unicode="&#x203a;" horiz-adv-x="743" d="M119 763l121 86l355 -385v-81l-350 -385l-122 90l219 335z" />
<glyph unicode="&#x2044;" horiz-adv-x="229" d="M-284 -43l678 1565h176l-677 -1565h-177z" />
<glyph unicode="&#x20ac;" d="M62 564v107h919v-107h-515q11 -80 37 -144.5t71.5 -111t112 -71t156.5 -24.5q31 0 72.5 4.5t86.5 14.5v146h204v-339q-38 -13 -88.5 -24t-105.5 -18t-110 -11.5t-102 -4.5q-162 0 -277 44t-190 122.5t-115 185t-50 231.5h-106zM62 765v113h108q13 107 52.5 211.5t116 186 t194.5 130.5t286 49q107 0 197 -15.5t164 -39.5v-333h-204v144q-32 10 -71 16t-82 6q-166 0 -249.5 -95t-107.5 -260h515v-113h-919z" />
<glyph unicode="&#x2122;" horiz-adv-x="1838" d="M64 1235v242h680v-242h-124v122h-128v-505h93v-117h-366v117h93v505h-123v-122h-125zM792 735v117h81v507h-81v118h296l86 -184q24 -50 55 -119.5t55 -117.5h2q11 24 25 54.5t27.5 63t29 63.5t25.5 56q17 36 43.5 92t40.5 92h300v-118h-76v-507h76v-117h-319v117h69v375 h-5q-10 -21 -23 -48.5t-27 -58t-28 -59.5t-24 -52l-63 -141h-144q-13 27 -33.5 73t-35.5 72l-101 208h-2v-369h75v-117h-324z" />
<glyph unicode="&#xe000;" horiz-adv-x="1063" d="M0 0v1065h1065v-1065h-1065z" />
</font>
</defs>
</svg>
